<mxfile>
    <diagram id="FB0lLMp8adpU2UOfi77A" name="Page-1">
        <mxGraphModel dx="686" dy="832" grid="1" gridSize="10" guides="1" tooltips="1" connect="1" arrows="1" fold="1" page="1" pageScale="1" pageWidth="827" pageHeight="1169" math="0" shadow="0">
            <root>
                <mxCell id="-sU8y2Q3AdZbQh8XbGMl-0"/>
                <mxCell id="-sU8y2Q3AdZbQh8XbGMl-1" parent="-sU8y2Q3AdZbQh8XbGMl-0"/>
                <mxCell id="LqsbPOSO8fhI4KLYFztt-86" style="edgeStyle=orthogonalEdgeStyle;rounded=0;orthogonalLoop=1;jettySize=auto;html=1;dashed=1;dashPattern=1 1;startArrow=none;startFill=0;endArrow=classic;endFill=1;strokeColor=#F99007;strokeWidth=2;fontSize=13;" parent="-sU8y2Q3AdZbQh8XbGMl-1" edge="1">
                    <mxGeometry relative="1" as="geometry">
                        <mxPoint x="-502.1399999999999" y="1395" as="targetPoint"/>
                    </mxGeometry>
                </mxCell>
                <mxCell id="2" value="Azure Data Platform - High Level Architecture" style="rounded=0;whiteSpace=wrap;html=1;dashed=1;labelBackgroundColor=none;sketch=0;fontSize=45;align=center;fontFamily=Helvetica;verticalAlign=top;fillColor=#FFFFFF;fontColor=#182633;strokeColor=#182633;" parent="-sU8y2Q3AdZbQh8XbGMl-1" vertex="1">
                    <mxGeometry x="1310" y="200" width="2270" height="1830" as="geometry"/>
                </mxCell>
                <mxCell id="3" value="" style="rounded=0;whiteSpace=wrap;html=1;labelPosition=center;verticalLabelPosition=top;align=center;verticalAlign=bottom;horizontal=1;direction=south;fontSize=15;sketch=0;fillColor=none;fontFamily=Helvetica;labelBackgroundColor=none;strokeWidth=2;strokeColor=#216FF8;fontColor=#182633;" parent="-sU8y2Q3AdZbQh8XbGMl-1" vertex="1">
                    <mxGeometry x="1450" y="620" width="2030" height="1350" as="geometry"/>
                </mxCell>
                <mxCell id="4" value="Customer&amp;nbsp;&lt;br&gt;Subscription" style="verticalLabelPosition=bottom;html=1;verticalAlign=top;align=center;strokeColor=none;fillColor=#00BEF2;shape=mxgraph.azure.azure_subscription;rounded=0;dashed=1;labelBackgroundColor=none;sketch=0;fontSize=18;fontFamily=Helvetica;fontColor=#182633;" parent="-sU8y2Q3AdZbQh8XbGMl-1" vertex="1">
                    <mxGeometry x="1520" y="575" width="74.62" height="60" as="geometry"/>
                </mxCell>
                <mxCell id="5" value="{ ingenii }" style="shape=image;verticalLabelPosition=bottom;verticalAlign=top;imageAspect=0;aspect=fixed;image=data:image/png,iVBORw0KGgoAAAANSUhEUgAAAMgAAADICAYAAACtWK6eAAA5q0lEQVR4nOy9B3hbx5n3+0fvIAj2InY1UlTvzZJlucmObVl23GNnnb2OU9bOZpNsNlnflN2bvl++ddZJ7HUcO3G35VjuttxULcnqJEVJ7BQrSPTe7nMGAxAkQPAARCNzfs8DAgRwzgyAec+8885b+ODg4JgUTkA4OGLACQgHRww4AeHgiAEnIBwcMeAEhIMjBpyAcHDEgBMQDo4YcALCwREDTkA4OGLACQgHRww4AeHgiAEnIBwcMeAEhIMjBpyAcHDEgBMQDo4YCDPdgb9TigBcB2A5/Q36AbwM4GymO8bBkUkqAfwBgAeAP8rtG5nuIAdHptgKYGASwQjebADmZbqjHBzp5i4AzimEI3h7ItOd5eBIJ6tYCkbwdixJ7ZZzsxHHTOBsnAJyaZrt/R8A9gnnbKOzGAdHVrElTuHw0wV8onxvinM/DYCXxM836+HMvKnli1GeGwLwPoBDYWZdLwALAMU0B/CXp3j9bgBvAXh+Gm1wcCSNU/TK3Qrg/wOwMsXtsZmhnktxHzg4WMPMELemsT02AnIhjf3h4IiJMs3tXWAhIKY092lGwy3YZhf1AMQA3ACkAPIBzKWm5m0AygD0AKjIdEdnCpyApBYBgDUAFoQZRDwAmgEcpYvzdFJEheWNNLfLwTGORgB/BWCMoeoYALwKYF2mO8sxOdwMklwWAvgpgJ3MP1qtFtu3b0d9wyIUFxWSNwwMDqGp6Sw+eP99jI6OBo97BcAjAJoy2HcOjpTBo5t0ZmZ22HnzLv/u3bv9Xq/XPxnMa3v27PHfccedwRmFUbd+xl20OGYjLzCDPC8/3//6nj2TCsVk/O311/3FJSVBQeE28ThmFY8xA3vZsuX+i21tkwqBxxe4TUZfX79/+/Yrg0LyGgB5pj8YB8d0+TkzoK+++hq/1WodN+AtLr+/z+r1XzR6/S368TfmOeY1s2u8kNjtdnIuKiR/SqA/pQD+jVqpjgM4R72DXwXwALMsSsF3MKvh9N3EuRvA0zW1tWhtbYVQICBPmlzAoN0Hr5/dSQQ8oEjGh1oc+N9sNmPtunVobiLr9V10AT8VFQB+C+BGFu99ikYuWtj18O8bLmlDYuRQaxVeeuklIhweH9Br8aHPxl44GJj3Msd0W3xwegGVSoX333sfBQUFzMu/YXHVvx3A54xwbNy4Ea/v2YOLbW3w+/2h27lz5/C/Tz6JpUuXMe+/l84qV07rG+DgiAFRrR77/R+IamR0+v2t+khVKt7bOb3Xb3IG1K0XX3qZzaL9n5n3rF6zxv/BB3tZGQR2v/aaf86cOcFzfzeN3xnH3wnVjCZ0xfbtZMAZnP5pC8ZEIdHZA6v59Rs2BAfy1ij9+E/mtRtuvNFvsViiGgWcHr8/mqG5o7PTv2Xr1uC5v5qB73DGwK1B4udJAPe9/Mqr2HHDTeg0+1LSSKmcj/f2vIpbdt3M/PssgDvDXt7JrE2WLVuOg4cOQiqRkCdtHsDg9MHiAXxhah6zzlGLecgR8SClDi8WiwVr165FU1OTFcAG6prPMQFOQOJDCaC7uromt+V8G7osPqRGPAI/TJWShyWNDWg912KiFiorNf/2KpXK3KPHjmHB/PmwuoFhhw8OFp5dcmHAKCARAC0tLVi5ciVsNlsfgEUA9Cn6ODMWQaY7MMO4A8Bt999/Pxo2bIMrjsV4Iri8gFLgxTvvvCOhruwnAfwXgM179uzBqjVrMGjzYcjhh4dlX9w+wEg7XlFSgPyCArzxxhsqACIA76X2E808uBkkPl4GcPMrb76H+vXb0tOieRgLK4pBzb1fBmC85tpr8dabb6LP6oPJnfip1SKgQOxFTU0Nent7PQBKAOiS2PsZD2fmjY+FIpEYC1dtSFuDAnUBGhYtBnWZ/z7z4JFHHsGAbXrCwcAcb/YK8ejv/gfUHf+WpHR6FsEJCHuY9Uf96o2XgSeSpq1Rrx9oXEU84hsAfLOquhp1i1fB4ErO+Ycdflx+9fWYP38+OItWJJyAsIeMoMYVq9LfcENj8KHs1ttuh86RvMUPc6Z+mw9XXXsdaBzL/KSdfBbACQh76pg/lTV1aW+YLxizpTSs3oxk2wZ8ABavuyz4701JPv2MhhMQ9uQwf0rnVKa9YZVKHXq8dO2mlLSxeHVoXbUmJQ3MUDgBYY8sFSf1uN346x8fxdO//y0cdlvU96g1ueReJBZDLI1c/wxc6sGjP/sRXnvuzwn3Q5WjwZyqaubhZQmfZBbCZVZkT0r2jL73wJfw5qsvkMefffIhfvfc3yLe4/EEspEuWhaZd87v9+FL112O7s528r/DZsNt/5DYWludwwhiRy7NiOJI6CSzDG4GYQ9xD7dbrUk9aWfbWB63Sz1dUd8z2B/IZy0UiiJeM+n1IeFgOHf2dDK6tSAZJ5kNcALCniLmT2tTUgZgiKtv3BV6fPk1X4j7+BxtHjHTBrn5rnuT0a0vAShOxolmOpyKFZsldPf6eurFi7bz55LawP0PfRerN20Bn8fHouXRTcgDl3pjnuO/nnoeJz47iMKSUlTPTcrF/yEADwL4EMAHtKiPMRknnmlwAhKJgnrOfjmaRefYgU+T3uDiFbENR82nTpB7lzP6skAskWLN5suT1h+xSASX2y1mJjh6+xGAxwG8BOBg0hqaAcxWFWsTgLVxHsOjgnGeFtoko1YmEmDL/AL84Z4V0Cgk6OvtRk/HxdT0Ogo+nw/HPztAHjefPpHStvQjATestx/ehG9tn4t5RaHUwgo6qzAdeR1ATQKnX81okcnsbzqYjQIiB/Aprb/xDyyP2UaTtv2FupUjXynGN6+Yh73/vAn/c8cSbKrNRXVeINHIR++kL3Pnp++9CbMpoN24Xa5JZ5HpYrNYiPArZBKUKPi4f2MlXntwLZ77ympcs2jccoRRN88A+B2APJanZy48n9G6KOUp+QApYjYKiI0KCKju/JUY711Gr4of0KyIaCjX4IkvrcSn/7IZD2yqQI5UAIPNhY5hM2oLAlshBz76IB2fg/DWqy+O+//o/k9S0s5n+z8i93ML5DjTM4o+vQ1OjxdLytX49S2LyPdx/+YaqKTEkiana5RLAL49hQn8TnrhAb1oTbfEXFqZDQJyD00GvTrsuW1huvIfJ6m89BBNjbOe+SdPKcEf71mBl76yEutrNPD6/Lg0asXRDh1a+gwYMNqxolJDDvz0/bfRN4lJNpkwbex56VnyeF6Ritwf/Dg1wrn/g3fJfYVGDIvTg64RC453juB0zyiMNheZUb+1rQYfPLwBO5aEJgEJgF/SAkHRfLjuChOO03Q9E/SUWUxn7aSY3VLFbBCQe+nV/0MAv6Zetx4AV9GZAVRIgjNJDk2E8F8gewsC3LuxGm99cz021ubC7vKgfciMzzt16B61EkEJUqgQoio/oJc/97+PpfyDPfl/f0Xuy3KkWFEamL3e3v1SStra/2EgVips3UGwOj1o7jPgbK+eXCTkYgF+uXMBnrxvFZZUhBKu1FIV6p6wQ5mZ4xn6+BNar9FCPRJ+Qi9g9RNCibOO2RBReIjWvVhCM6UzX3g71ZNfoWrUfKo759KYcmJP3bawCL++pRFfWFwEp9uDTp0FHToLGRT+STwCZQLg8x4TzjefxfYdNyI3Lz8lH+pSdyd+9M9fg8vlxOYaDWq1EhzptcBkNGLD1u0oKZ+TtLbeee0lvPjU42SWuL4hH2JR5LBweXxE1Rwy2eEHD/OLlNi1vARqmRjHuw1we/1S6ui4HEABtXqBCsf11Ex8FV3k30TrmDCLuW9lc5DWbBCQEQAv0qvTFVQIbqfetx/QvLmrqeVlbdCn6t6NNfiPGxaQNUaHzkyEw+6eOqhbJeLjos6BQYMFRw9+itu+/AB4vOQHZj7y0APEaqWRCXFjQz4kQh70di8GzC4M9vXiC19MTlVnu9WKB2+/ARazCRurNagvVUEomFyxYCZUo92FQZMdUpEA62rysL2hGKcvWTBkIgYE5mJ0DX07o8LuoA7DPwfwaNjC/gc0/iRrhQOzRECCHKLCwMwklVTH3Ul1X+bqtpF5E6Mi/PC6enxlYwX5kc8PGGF2sK+8zAgD3+fBqT4rRoaHIBAIsGrD5qR+kNeffwa///V/ksc3NOSjUBnYripRi/FZtxndHW1YumoNKpLgev/yM0/gzVdegIDPx/ULc1GiVbASeEZQRixOOFwelGtluGFJMTpGHWgfHpew8WYAzMLtXSooDEfo49ToiklmNgkI6GzyJwCjdLYooylCiXDUFSrx7D+uxdIyJVoHjESn9sUZXCEQ8CHh+UNX88/2fYy5C+pRt6AhKR/gjRf/iu888CXyeE2lBusqAmsC5qou5vNIBpM+owN733wdV33hZmi0bC2tkXRcbMU37r4FXo8HaytzsLRMBZVCEtc5bC4vBgx2iIV87FpRBq1aiSPtOngCX+w9NCdwHq2N+O8A7gMwmHCn08xMFZBdNE2NnCYaUNLaHMEsPEdo1vXbqMqF5RUaPH3fCrg9bpzrN8DhTjxhj88HlCqFOK9zwOry4p2/vQylUomlq9dP60PtefEv+M7/ExAOrUKMWxvzIOAHruYatRR2pweVuRIc6THD4XTi4Efv47pdt0Mqiz8R/EBvN/7hpqsxqhsms+quRXnIVUoglSTmXGG0u2Gyu4mhY9O8Irxxuo8RkuD4+oBepMJNcELqvsOovnPoBa2crh+zhpmY1WQFzS0bCw9dkxC77Lq5hXj8zsVoHzJh2Dz9jTa3x4sBnQUOjw//c3gQJnsgQPz6XbfjZ7//87gIQDb4vF78+NtfxwtP/ZH8LxQI8MC6EuTLAudhhKS0UA2dwQq7w4NT/TbsPjtMXqtfvBRPv/kxFEoV6/a62i7gS9dfjsH+PvD5fNy/qgilajEKtQpIxNPzPhLweJhXkoNhiwc7HzsMr49ciNwA2ui6cKoGGPW4e1qdSCIzdQa5ilZwnUzA+XTdga0LCshGV+ewiejMyYDR150uL3h+P+bmy9A05IDb6yOWrQ/feh3avDzUzF/ISpc/8OF7eOjeW/HJe2+R/1USIe5bWUxMykFU8sCVnWnXanejWCWCyy9Aj8GO4cEBsrNft6AeZRVVU7b3/p7d+MbdN0M3FNByrlmgxYICGfg8HpmlpmtwYBSrUYsDJTkSXLW4DB+36mBzeQT094q1reCl68hHwzSBjDMTZ5CJlFBXdAHVdb8NYDvzwooKDX57WyN6RixEV46F1e3HsMlOHheqpZCLYm8RMYvT4dFAbMio3YvXW/ToHBmLFSmrqMT263di9cYtqK6bh/LKajJ8ers60XHxPI7s/xifvPsmeRykNEeGWxrzkCsbu27x+TwU5yuJcDD068zweALj5+MuKz4+P2YE2rD1Cly36w6s27INRaVjHh09ne147/VXsPfNv+HEkUOh5y+fl4fNlYE1To5KCnWM9Qcz8PuMTjJ7ysQiFKkiY1MmUqqRY9DswgN/PRmu0v47VYF1VCgG6JokxWn4EmM2CEg4C6j6pSjSKPCHOxthtTvhiGG+dXqBF48P4ODFEWxbkI/N8/JRqGA3sY4YbbDZx5JTfdJpwUcXRhLq+LpqLbZWKyEWjP9JtDkyKGTi0P82hxsjhrHQ3M96rXi7JdJSKhSKkJefj8GB/ojXmDZuWFSAhsLA5iMzaZTkq4gBIhZ+P3C8x4R3m4cxanPjrjVzsLRMEfOYApUUR3us+MmeUH3Sd8LMwFnPTFWxolFMneGKpSI+fn/HYni9HtinmDmeOtSL/Rd0ZBF/z5pSKMTsnQukYiFsdldoU7FKIya+TA4vYHZ6g5acSWEG5LwCOW5uLMCyElloQR46v0QIjWp8KLxIKCBC6aONlqvFqMiVQe/wwBhmrvb5fLBaImvk1OTJcfuyIlRqxoQuVy1jtThnBKk0RwKtUoKPzulwrMuI1dUaKCWTDyOby4PGUhV8PAHO9BKnyzq6Rtw3ZYNZwGyaQV6mdnf839uXIk/GizlzMAxb3PjPdy7ihqUleOZQN9bWFeKeVYWQCNkLidPlwdBoZBiuxw9c0NnJ3sCw1UNUMlChIi4rWinm5ssh5EUXIkZYisJUq3Bcbi+GRi0Ru/06mxcn+yzoNjjg9oyp8VKxANVaKZaUKJAzYTDLpCLka9hbwTr1Lvzi3QuYV6jA0goNdGYndi0rmvK4slw5fvNRN9470xd86nq6k57VzBYBuZkKCK5fUoY7VxURd5Gp6ByxoUfvxKa6XLx8cghvnxnA8spcfG1zfG4cZqsThiRYx8IpylNGdfkIYrW7MGq0T6sNZn3DqFZ8Prth0Gtw4mfvtqFEI8X3r6ohg+e1U4O4ccnUAsKQq5Thrv89FlwPDlMTb1aXgpsNKpYawG4AGo1CgkeurYPZwS5prUAoQF2+nKgOC4sV6Bq142SPEaM2D5bOUbO+ekjEQmIFCs4S04EZrIXa2MIBEvUnICZaB4sLQTSYGaowVwEhy9myddCKX73fBplYgIe3VpK9E4YyrQISAbtvyuX2YHlVPva2DIEGYYE6mWYts0FAGOFYxaw7fnvrYjjc7DM6Mz9s0KrJ3K2u0qDf4sHhthGyCdhQooJ0CmtW6FxiIVGfHDEcHaeCGfQFWgVZZ7BqUyQg73U448tizfSzgAgHu3aO9Vjx2MftEImE+KfLa8g6JNQHlsIBaqbSygXwgo/WATOoc+nhbNscDGemC8jNtOwxdq4oR11+fG4SE2GEZUm5Gq1DVpwfMONUjwlravIiLEuTIRTwIZeK4PX7x60B2LSrUUnJYjnamiMWjIDIpWJ4vD5yi9kOaDs5MtZq1ec9ZjyxvwvM27+zvQaV2ukl7vb6/FhcnoPPOozMTM+n8TiP04V71jGTBYRHHd4K8lUS/OPGCvCSYEpnZGFhkQLNgzb0Gx043WchMRJqKbuvihl4jJDIJCJyzWQGxGQzikjIJyZcbY6cvJ/H48Hu9qHX4EDLgBXtw1Z0jdjJbcQeEAC1VIiJe3lMm8x5mJmBOQfzOg+Be6FAQJ5nXs/TyFm7knj9wIfn9fiwxw+LyYSHtlWjtiB+l5ao5/b5UJgjw+H2UdAqvnq6SZh1zOSsJl+jATf4QmMh+EncfM1TikmMyGOfdECeV4Yfv3Eet6wsxfb57OvwM+oSM/BBXVO85AofkBRGMBjdPzhbGBxeHDqnI8J4fsAU87zMjLG4TI3lFWqsmKOGKGx2Y9S86bqKMBgdXjxzpA9Vy7fg6V8+hF3XXYX5RbH3O+KlsUSGBcVKnBsga/R/o8FVQ0ltJAnM5IjCf2f+lGjk2FCbm/STX9IHNuN27rwJv/zVr/H8kV68eiqx348Z1FKJCEq5mNyYQRzaGTc68aM3LuDl431TCgeosH3epcfj+7rwmw+7pjRlx4vR6cNv9nZg8ZYv4NVXX4VCoSD+a/F6PU8FM6te2xhKBpFLPSCyjpkqIN+mUWtkcy8VjNgCA89gMODhhx/Ck08+ifdaRvGrvZ0YtiSneg2jTv3ivfaQsyODWq3G008/A51uBH6/P3S7cOEiHnzwwXHHMwL11Gd9SekLw2edJvzrq824+e6v4KmnniLPWWmq1e7R6ZmUo9FQLCdrPsp9YZatrGEmqliltEY4VlVpMa8wOXrxRNp04zOt33fffaiursZNN+3Ev7/eirvWVmBDTc602jjQboBpgknaZDJhz57XSahtY2MjCciyWCw4duwYDhyMzNl2tEOPL6+vgJif+CWeEdQnD11Cl4WPV157HTt27Ai9NjQU8Bq2uFLjP3jnmnI095+D2+vLB/A9AD9MSUMJMhMF5B5akRVXLGC/JogHj5+HAerv5PWOqTBbtmzBqVMncd111+HJA2dwtEuDr2woj8s9JRw+L/pxL730ErmxP09CzRNOXrLgz4d6oc4rxIEDHwRLsYUYHQ34lg2anFhUkvwLfJ5ciE1ztfjwHPEnuy/bBGSmqVgymq4HFXkK1CXJqjKRPsPYrvjIyOi41yoqKvDuu+/i2muvxZleA3645zwOdU69dojG6io11NKpvWJjsaIqd1J3lViYnD789Wgf/vvDdmy98lrs378/QjjC6TOmrhrC+trQha4MwDdT1lACzDQBuTWYZX3nspKUNdJnHIsb6euP1PFLSkrwt7/9DY899hjcEOKJfZ34z3faceJSfF4TSjEfD22rIn5KibC6Wot718aXqNDh8WH3qSH86+4WHO624dlnn8Vrr+1GZWX0yll2e2Dt0WdITixNNKq1UiyrDAnJI3FkbEw5M03Fupv5o5SK0FiSmtkDxIlxbNHs9UTfvxIKhXjggQewdt06XH3VVWgbHMSjH1qwqlqLm5YUsYqXYKjUyvDIjjrsbzPgQNso2oZiC5lIKEBjmRpXzM/D/KL4voNj3Sa8dLyfOBjOnTuXqHFLliyJeczAwAC511mnWXN6Ci6r0+BEV2hfZBvNVJNxZpKALKNfHK5rZOcclyijFvbqxNIlS3Dq1Ck8/PDDePHFF3G0YxSfd+qxtkaLqxoKUJ4jnvIcAl5ggDA3m9tPTL/9Rgda+k043GHAjkUFKMtVoEglRIVWHteaw+nxoXnAhtdODqBXb4NMJsMPf/hD/OAHP4BYPHXfRkcDKibznTBrs0TUOTYsLFZCIREGnUwf5AQkfkhdMY1cjG1xbNglgtMb36q3qKiIqCpf/epXibWrra0NB9tGyG1esQqb5+aTwCIZC78uuYiH2nwpuXm9XiIgyytyUJUX32wxYHZj7zkdOd5GfbVuuukm/PznPyezRyJ06Kwk3iUVCPnA5QvysecUmbEuo9ka21LSWDz9ykB7xfTeQG9syA1mal9UnjMtqw0bBsIi9hwO9rPJpk2bcPZsE/7jP36Kn/70p+S58wNmcgNdUK+r0WJxqQJx+PixRm/3Yl+bAZ+cH4bBOqYmMmumV199FWvXxlsRYryRYtDiw9yCpHU3gpUVOUEBAc1p9svUtcaOVAmImqpDl9MsJCoaDhutvU6az6oZwHs0JHNiDOmtQYPChhpNiro8xoh9zObf0xu7utNEpFIJfvKTn+COO+7At7/9L3jrrTdDrzGqF3OTiAQoVokxRytHcY4U+UoJ8hTCCHeZETrI+6NYkBw+AYaNNhKM1T1qw6jVHdr9n8j3v//9hIQD5PP3jPXHZKUZllJDuUaCygIVuobJBeW22SggXwJwA4Ar49gVraK3FXQRbqfJpX8EIJhC/VrQ+OZ5BSmpxhyC0bMt9jGLjcmYWOWxhQsX4oknHkdpaeROv9PtJbEnXSx3p584EJ+QTqS5uTnhY8ONFMx3k2qurc/DY58QAVnOTCosUjyllGQICJ+WF3g46DwImhqH0ZtrC+UoVooglYhRwFwlwxZ5VrcfOpOD7NKeG7Dg3KAFPp9fRjeMmFnjGwBeo2l+iINeqhk0RZozbTYb5PL4de9z55JbzzBRmpqaEj42XMXq0ae+MvSKCjVy5WLobWT2vG+mC4iS+vLfFnyiQCXButo8bJ2nhVrCYpulODDR7FhUAJPTi7fPDmFv6wi8Xp+CZmJfTetQoL4kddN7kGgJrDs6OtHQUB/3uVpbW5PUq+nR09OT8LG9YSqWdYoEGMmAmaOqC+TQdxEBuRnA1zOZEmg6ApJPywuQzM0auRg7lxZhXU1uxCLa5/NHDeYRCHjjAoTUEgG+uKIEy8rV+K+97XAF3MMfYP4opCJiCkw1w+ZIR8Th4aHwyZE158+fT1KvpkdHR0fCx3rCVKxLhtTPIKD5zI53EftNEa03mfzKqSxJVEAYxXovs/Dm8XjYNDcPt60oJtlAfH4/HE4vyfbhdHvgdvtCKWomQywKBPVIxEKIxQLMK1Lg5uWleO7oWLWutVWalFh+JuJwR24MBj1a46V9GgMz2SSqJobjdLmJ23uqrYhLypQkJZI3cFHdkUkBSdTV5L+pVQrXNxbgS2tKIeLzYDDZ0TdkwrDeCpPVSdJzTiUcoGlsmPczx/UPmWF3uomFJ5y5henxhI6mZre0JLaW6OnOmhSzaGlpifsYgyHSQKF3pF7bkYn4KB+Le4+91Z9iEhGQLdRGjWVz1Li+sQgGsx39w2aYba6EExYEYQRKp7fhwPnh0HMioYBkGUkHZlukZcliMSd0rmxZgzAMDMZfcaCp6WzEc9G+n1RQVRBSpzdmMjQ8EQH5GfMnRybCHStLSa5Ys9XFaqZgi87mweGuMQ9ZZu3BMrnItPFFMWUODCRWziJR1SwVdHfFX3TUFkUYon0/qaCxdFyN9i1paTQK8Q67mmCB/Svna2G12MkCPNkc6DQF0+YTkpUsgA1WT+QAOHcufvXEmOD+Saro7IxfQKIZGaze9Fyp6grGqdSJ7XImgXg/7e0g/kICLMhPzYbdqD2QPjOcItXUTnXJwmiJvGrG424SpK0t425E4xgZib8UYMB6Nx6jOfpufbJRSfgoHQsDWJOWRqMQr4CQsgKNJUoIUuTVua/TTGKww6kpSF+ocvjMFeTs2UhdfCoS0flTSUdHZ/zHdEYeE+37SRVLykLrztq0NTqBeAVkJfOnmGWsQ7wws8eJ3pBqQnalFFIRCcvMJMxawhfnwOidxuZcKjAa2fqFjtEVRUDSSb4ypDnUB8Os0028AkIu5cGqq8lmX0dIOEaZCxjzIF4371QR72abyZRYGG6qGByKP2WRTpdYrZNksWD8xnBySwmzJKEVVyrsGMM2D05cCplT/0INAqjMS61zIlsMhviuwBcvXkxZXxIhkRktmpk3nRSrhFBKQ7PIpkz0ISEBMacg+nJCPPfeYN+KlelboCcTzyShujMFvV6f6S4Qwgw0GbFkxSsgZOdrIIrH63S5MBKyFH1G69YRSliErKaD9vb4VKzpOAhmA+3t2ZFwPez3b8xE+2wFpIF61ZJVW+twcp3Wes1uDJtDQvcMbY8QSAKdeaKZPGMxMpJZ/T0ag4PsP0O8RolUUT5m6k1NCs0piCUg6wH8iUb7naVXdhKX0WcMlBZLFueHxtnWX6a1sgnFyuwQkHj3NcITzmULXV3srVK9vZdS2he2TMgYWZzu9qMJyHJa9ecAgHtpGpYI9rYZk5bQuH1MvXqXlgQmV4sijSIi1X+miHdGGB6Of2Mu1dhs7Df5BqJUx80E2vFFTONLApYEwu21EgD/Jxh/waAQC0ixxqpcCfLlQlJ/w+gE+k1OsmbYe9GA7XOnFyPOyNjAWB6q9+k9Cb7Ik2dPXruWOKMDL12aXphspknE+zcVaKTjxsDCdEcYhgvIiwC+wDwQCfjYsTAPS6MkZ2Mu7QsLJLi8Vk1S5ds8wHT28br0zvBgqr30nuy3VOSlPkBqIjKphIbFj0c3PJz2viQbk4m9V/JkngBy2fQqTMVLcc64GSTtA0JItzX+NygczKLohvpcFLAY9TlsQmqnoN8SMocyo/IkfUz2QMS89C8UNbLon7u9vZ2sKwSCmVuUK569nIsXLkR9Podlpa1kIRq/BqlOa+N0DfJjGhxPCr7/w8oCVsKRDAwOHzr0IetVZ5g7AXHCKc9PTwxIOGL+5ELZ2souhDYeXT+dmM3sZ5DJYllifT+polAT8sWbXr2JBGAk4VvMgzyFGDfW5yWlzt9UePw8vN2qx+c941zCGf3SHF5cXiFIvyUoRzH5zr3dzm7gx6PKpBO2purRUf2kQh7r+0kVsjGhTH4psSlgZhCy0LhuYV7KPHTDYVrYfVaHMwNWlGvlUMnH6bQSmsmCIBCkf5GulU5uNutlmUTO6UxdJvR0cP589NmDz+MhN8b3kyrCEntkxoq1qESJ6tz07Fh3mzxYW6vFQ1doQsH/NrcP5wetaBm0oqnXSKxkDEW5qqBTb9oozZ38Csk2hNbhSE9YaqpomiTRXFUaww7CyVXLAR2Jzky7WwURzSvq0jdz1ZeosL5GMy4zhlzEx9JyFW5fUYxtCwtDzyszoGLNiSEg2ZIILtVYJlmr1BWk36rIkDtW/n5ZumcRfmmOdKKtOaXw/LEH/RtnAm5Yq2vyUp5eJhoSAVCqie5iP50MhTOJyQLE8jPkOLquNlRPhx9MYp4uhGVj6VXSgtszuRXkk4sGGGwBV+FrG/LT2KvxVOVJ0WeIXKSy3SwUCNhbARUSCS6vqUG+TAq3348P29rRFyOWZENNNeZpApuzZ0ZGcKyLfWqhnBx2RqCzZ6NfCJaWZWYGqcoVo740B819xKjzdQC/oQadlCMsVKTXru1ye0iiB/6E6cHp8WPP6cDsMb9YhTma9ApuOAuKVTjYNhrxvNlkIuWY586ti3m8TMbO0vPwxg14eMN65ErGPqvb58NzZ87ie+++C7NjbLG/rmIOfnv9dViYN7462ZFLfXhgzx5cGJp6IzM3l11dlTNnzkQ8V1ekIhnoM8U9a8vwvVeJgDBXzn8E8Ot0tJt2LcbvByy2SCvP0W4T9DTd/9b5mZs9GJj1kEgY/cLBxoVEpVJN+Z5/23IZfnz51nHCAbIxxsc9SxbjF2GlmEtycvDcbV+MEA6G1WWleGHXLuSyyJrIpl9nzpyF1RpZBm5FRerLTsSiQCHEwtLQDPg9WlIj5WTE2clsc0WkCzrSGdjlzZGJsHxOWj77pCjEfKyrjj4gjh2b2hVIrY7d//qiQnx388aY77mroR4NxYFSc19dvQp50sldPObm5+HZ226dsl8azdQq1uHDh6I+v6w88zX+r6wPVe9hrqC70tFmRgSEEY5R45gptMfgRNOlwKbhpnkFacnBOxU3LCkiuYYnsnfv3mmf+ydXXgkei8Dlf1y1CjkyGe5fsXzK924sL8d1U2SgZ+Mm09wc6aS4rkaLgiyI7FxcIg/3zXogHW1mzF3W7nTDag+oVB+2jrmSb6lLuzdBVDQyIa5pjAw/+Oijj6d13tr8fFxZXcXqvTctXIhdjYugYlFsk+HLy5ZOq28M+/bti3juusWpLZoaDysqQrPzanpLKXxfSlIwjHHJPHlsNjOLmGwunKIuJxvr8pArz44AKYYr5muhVYwfnE6ng1WeLG2U9QLDNTGK9U8kVyohC3m2bKuuhjDGLFFXF9u4MDqqx+efj1chr15UlLI0T/Hi9/vRWCCFcMzD4u5Ut8kftiQ/A8Oo3YvXW/T4zb4+PH44dmTaW2eGYbQH+rBtQQorRCaATMTH17ZWRyzY9+/fP+WxJcUlUZ+/f+XU6lI4lUr2plU+j4ettTWT96kkep+CfPrpJ+P+X1SmJjXfswWD2QGpgIdFRaH10F2pdoHnD0QpGJMoZqcXL50ZwaMH+3C81wSTY2rhO9AZmD3qChQoVmafK3lVrgT/cmXtuPXIiRMnpjxOKo00U1dqc1HLci8iUTZUVEz62lRrkHD1qq5Ija9vqUaUZVhGcLm9sATKsuGy2pABRUNNvimD3292JaU449FeC353qB9NAxbWAf/dRhdsroAKVl8og95kT2qW+GRRmyfFV7fUQCoKDDA2KpZMFml2XTrFFTwZLJtGG4cOBSxYtQUKfH1L5cRYjIzh9fkwErZxmyvlo1obWqx/JZVt8z1eHxnUidJtdOOxwwN4s2UEjkB9PyeA39OEDzE52h3YDBUL+agvlJOrhMGUnY5+jSVy/GDHPMwrUuHgwYNTxqjX1ETG9lSwMLNOl9VzorsqFRTEVl9NJhPOnjpJKnt958paqMRZYEqk6E2OiBJ+9cUhNWtBKssjkAn07GBiAT4tww48eaQPg2Mpe07QlD1fDSvhHBWvn4eW4UC7c/NlkAoDP4jV7obDmZ1J10pUInz3ymrcvb4S+6NYe8KRRtm3qNOk3ilUKRSiJoowlJfH9vFrOXkE372igrj4ZItaBTIeXLBHUdUbi8bN0Lenqn3yVbSPOGCJo4Kpxwe8e9GMF06Oi1t+hJrdgvlxYian7dTbQ1eFJROq144YbVmTlykaW2pzUKCPdMcIp6ysLOK5huL0ZK0pjbKrPpX7i6N5L0rS7Jc3FW6Pl6jd0WAuqPMLQ5/zllT1gTjXMDre/k4zrp43tTuB3QM8fXwI/WMbfccBfBHAxGS0Mcsrne4PzB5iAZ8shMPx+fwYGrWhKE8BXrbk/ZlA94mPsf6+H076enEUYXiptRVNAwMQCgWYk5cHDT85RgkH/NC73BgYGYHD78elKJWt5s6dG+MMfvQ1fZaUviQLj8eHoVFrzJJ+jFreGsipxkzNlwH4JNn9ENIKoptP91txxVwNhDHGo9Pjw5+ODmHIElKp3qLCEdcihpkbWgYDP+LSMiXEUbbOmavHiMGOPI08a3JjhWMz6NBz6lPMWRI96Xh5UR6UMgks9jG/sz/sP5DGHob1RatAY+Xka5CL+/fAbsyeTJB+vx86g3XK6mXzx1ceuzFVAvIEIyA2lweftBmxbZKdbEY4njkxHC4cf6Kux1MuYDx+HoRh4bwXR5xwUfVqVfnkiRnsTjcpEJqrzo4M7xM588afJhWQlQ1z8dtd88me0KjVjQGTA16PFx7wMWrzwEY9df3gweNPTOnnwQ9hWOaX/BxlKMhMKZegUClCWY6EeKQuro+eudPrduHE7t8n1H6qGDXaY4ZFBGHUrIZiZdDIdCuAh5PdFyHNhbuDmQn2dRhQliPGgoLxA3LU7sFfjw9ixBZaPH8NwP9Mce5QusQRmxtFYa7Sp2iZA7VUiIIp3O0tNhdxjc9RpjcfExsGWo9jtLsV2orI3XE+jQnRygTkVpef2f67JwkDbv/sXZiHsyPNqM/vx6jBBnscRprFxfKggJTShIPR44UTJHjpYgY8SXnx/MmhcVYtZuaYIBz/LwvhQPiaxBV2NXB5/WimuXgXFrHzEDVZnDBbszMRwtm3n850F1jhtETmxPI47Ti5+7GM9CcaBpMjLuFgmFsgJ4kOKUmPNgyemVFAbwsurF8+PYxnTujwevMIfnd4IFw4mLn4RyzPHYo40lnHzHTtemeoBmGtlr3VxGB2ZKWQXDzwBkyDkVF9Fl1fRvozGf0tRyOea3rnmayZPZjfN+i8Gg98+FGjDc3OU/v8x33+MT4CcAUA8su26aw4fskCU8BPilFsf0L3N9gSik/VO8ZMyO26wFQvFPBQF2elXOZLNFqSW3ohGez97cNw28dbjnpOJH29OC3splEcefZXgN8Hj9OBo8//Bp+/8rtMd4vArDmmc/EL00TKaVWCpDExhvIwgDK6fX8vDUw5Q9WqROpxHQGwWm8fE5A+Wp6qQC5KyNeeUbc8Xh/ycrKjdiGDvvci3vyP+3DVdx6DTJ0HXUczLuzfk+luRXD2nWfQsvcF+Dwe+P2Z32diNIkRoz3qRmA81IzXRBYDODjdvgWZLMj4cXqbLscYAblkDFz1XT6gj+a8qslPfIDb7G74fFZiAuZniQ2YWazv/tebocgrhrGvg6bIyz687uQ5p04HZkGu09vgdE3fa0ItERA/OerqtIEuBZJCqp0KPmT+jFpdMDl96Bi1h3bIqzTTi1BzOD0YGrGS/ZJswWHWY6SzBR5X9qmB2YTb7cWgzpIU4QgSttm8LWknTYOAvBV80G1womcsUTUqcqdv9mSEY3DEEnKD5sh+TFYnBkYsEc6H0yUsC05JsDpAMki1gNiDhT/PDdtgdgW+lIpcGSRJCjz3+0H8dZgFPEf2wqw3mN/JmKLfqXL8BTdpobjpSHTErFbntwzaoKT1RFRJqCsyEbPVSaZsbY5s0pQ9HJnB5fZi1GhjtTueKCXqcQv1pIVBpsOx+SlQh0ijPaBzVoVJu8PjR8uQHZ/1WtFrmp41g/khBnQWIiz+LAy8+nuDWYgbLQ6iBidLOFxeP073W8l4uRQ2XgTwQyEJXe+nn72Cko4ZpAlAb3jSYUbanR4f9ndZcKjLBE9YRdhdS4qwqHB665PgplOeRs7NJhmCuVjp9FZ4k1XplfJKkx6tg2NZR0s0cmypVmN+vgQlajEuDpOL8KJktZfO0XNV8IGPx8ObLaNoG7GFQmzLNFJcNT8P1RoRcYGfLj6fnwgJc3aJSJC1bvOzDeZ7N1qc0BvtSauCHE6hQgixSAid1QWPzw+Lw42zAxY0DztIrjGjgwgIc4X9RTLaS9eoUQG4MFE3FPJ5WFKmwvJSBcrUqUtMxufzoFZIoFJkV0DQbIJRaRnVNlrWzFTg9PrROmzH4W4T+oxRd+GXhdW8TJh0CMhOAD8DEIrYYa7mq+aosalKBZUkfZOYWCSARiWFRJy5JMyzEQcJS3BmbE/q4qgTH7UZcckQ4bH8PM3jGzP8OxapEhA+zVn0IIA1wSdlIgFWlKuwao4qKRVyE0UmFUElF3OCMk0cLg/MFie5zwbODdtxos+K1qFxfnFOWsX5jwBOxXvOZAuIlM4Y/xq+UMqRCrG2SoNlJfJQcoZsQCYRksAiiZhbo7CFUaXsTg9Rp1zu7PFiCGfA4sHBLjOaB8xknRLG09SvsIPtuZI5KhoAvEDvQ2yp0+KyalXaFjuJIBLyoVHJIJVwM0osrHZXyFl0JmBw+LC7aQRdo+OCXt20tsiPwoP6JiMZ47aSusKH8qQyi+/VFTnYXK3OqhljKgR8HpRyMRRycXhl1b9rvF4fceVhFt8zdW+px+TGBxcN6BoZJygDAL4B4OVYx05n9MoAfJ+qU2SlzQgGs8bYVJ0DpXhmDzCJSAC5TAS5VBxRDWu24/X5iMc0M2Okcvc73XQb3djTMoJh8zirVyvNrfBBtGMS/eU3APgLgFAe/9IcCXYtLoQ2jQVB0wGzNJGIhFRYRLN2rcLMDla7m8RmZMuiOxV4/Twc6zXjgwujcHvHzYi/oBavcU8m8mv/kJ6IBHSopUJcVqPBslJFRqrSphNmJpGKhWTNIpOKZvwuPbPItjvdxP2cEYoZqkElhN7uwXsXDKH0U5TPAfwTgFB+pniGdAmAJwFcHXxixZwcXDk3J2meuTMNRmAkYiGkYgGpyyEWCbJWHWPUJkYgPB4fcep0ur1p2dDLdi6MOvH+eT2GxtQuO50ESJFQtr9mA4B9NIMdlGIBblxchLrc7Ciskk0wswszy4hFQggEPCI06VbLfH4/mRU83oBQMAIxm9YSycbtA7F2NY9P4v5nAPez+eXq6ZRD8pKW5kjxxcV5ZG8jE9g9gGyGWWOFAj4RFmaWEQp44PMD/wv4fLLGEQj4rEOHmat+0MzKzAper59Ymrw+P9nJZl6bqTOD0+uHkPlueJnp/+f9DrzdPBS+d/LeVL/KCgB7AZB0i0vLVLhugTZj2b8dHj8ePzKAb6xPfZ0NjvSzr9NM3Nm31U6ebTPVjNq9+POxfhhpJp5YQ72Emr6IcKyrycON9ZkTDoZjvWaMWF3glIXZid7mwr52PYzOzO3Qa2UCfGVtGVSygPNsrOH+y6BatbJchatqU1oKbkrMLh8Od5uhkQozV5qXI6Xk01LTBzrNGe2HUsTD/auKkCMVTDrWlgK4k3kwJ1eGHQu16e3hBLx+4OXTQ7A4PVjAMl0px8yjvjCQSPBItxEdhswm4siR8HH3ytJJBSRUsefKuZqM+1Ht6zShi2ZEWTtWJ5tjlsFoB4toMaU9TTrY3ZlVpvNl/EkFhBTnLlRJMCcndYFMbGjXO7GvPZB4eVGxAhrpzN6c44gNc0EWC/gYtbnx/KlhYpjJJJMJCAkKV2d4MDYN2vDc8UFiwpSKBLhibupr/HFkFrVEgM21gd+5S+/AX08MwZ5BIZlMAtYCWMZMcavmqIgTYjphvo4P2014+9wIiWtm2r9jWSGKVdzG5N8DFRoxug0u4g5icnhIuYy5+TLIRek3z0wmIMwK6U6Pzw+HB5iXxuIvLq8fL58dxfGesRqg1y7IQ31R9iSr5kg9CwplaNU5YXN54XD7cKTHDK1CjCJl+i6SzBJoMgG5CGA7I8yDFjfkYkFKkyqAzhpNg3a8ckaHbv1YbPG2eXlYV5FZEzNH+mG0hvmFMlwyusgswtAyZIPO7kWpWpryOCOnx4fnTg7HNFBVA3g3mGyhNl+Oy+tyUaZKrp+Hz8/DyX4rjvaY0G8a89NXSYS4YVEB6rSZNRJwZBan1489zSM4OzDmdcvj8bCoWIn1VWqUKJM7Hr1+4PNLFnzcZoTN5ZnSgssIySs0hQqhsVSN1eWKaVu3hm0+HO81EeGwR4k/2FKnxZZqzqTLAQyY3Xj+tA6GKEnKq/LkaCiUYXGpEtPJA2L3+HFmwIajvRYMh+UPZjNPMcr/ozSkNiSuOTIRmVUqc8SkECefz0eBQhzhaObx8zFscZDF9rDVg26jC50jNmLGm0hhUTGGBgdC/yskQiwqkpNyv8VqMeQzKHyXY3oMWT3oN7vRNGjF+bAsJSq1Gm63Gw77+BQ/Aj6fJLCeo5GgVC2GSsyDRCwiAXwTR43Fw4PJ5iCOr30mF6k80D5im5gFsgfAv8Uz4ooA/AutZViW2MeORKlSYcXajbjj/gewYet2fH74AB792Y9x9OC+iPfmysWkrLFGJoRGwoNCKoZawgcvC6olcSQCD16eADqzgyyIB0xO6GweDFpcJF4lnFxtHq78wk587Ts/gEAgwCt/eQpvvvICWpvPJLtT+2iaoD+DbTwIny/AirXrl67asHlD/eJlG10ux41739oj3ffBuzAZI6unToVILMbGrdtx9Q0345qbbgFfEGkruHiuGU8++hu89/puOCYpYcwx+ymvqML9//Rt7LzzXqKlTKS/twd7XnoWb7z8HNovnE+ojdp5C3DjbXdh0bKVbZ1tF/7WdOrEgYMff/BRX0+3PqaA7Lj5i9vuvP/Bby1eserKyRJdG0Z06Lh4HhdbWzDYdwm64aGI9xQUFqGwpBRlFVWYV9+A/MLiuD7Amc+P4Phnh9B85iQuNJ9F+4VWeDyzN27675XikjKUV1VjwaLFWLV+E5atWQ9tfgHr4/1+Pzovnse5s6cxqhtGT2c7HI7xmX0kEgnmVNUgNy8f8+oXoW5B/aQBbXabbTCmgPz893/62Y6dX/wmzWCSVdisFvIFcIIy81EolKioro2qSWSaKVWsgqJizar1mzev37pt07LV6zZX1tQlrXoPB0cWYjh64NNPjx7cd+DogU8PxG0WUqrVgsrqukULFy+dm5uXX1JaPmchAEHt/IX5Eqm0smHJcmZOrEhN3zk4poWjr6f7gn5UZ+nv7TmvH9E5AeiaTp3o6O/tbunt7uzoarvYF35Ayuymc6pqclTqnGqlSiWqqKmrA6AqLZ+jyM3LrwFANlEUKjW/sqa2jNZj5zcsWa5lVNFsVOk4sgbD0EB/9/BgvxuA02ax9HS2XTCGv95+vrXDbrf5HHZbd/v51mEAlvYL5y447Pa4zZ1Zu7GQk6sVzFvYMIealIViiRRLVq4upqlOiQBV1tbJCotKSgAUBj2Q5UolI2iFVOi0aSozxxEbZqWss1rMQ82nTpjCnjcAGGg6dWLIZrUwg9cLYHhooP9SV9uFYFih2WqxtDefPhG/uTQJZK2ApJqS8jmSXG2+itEaaYGfca4BAoEA8xctZl5TUIGU0PdOSu38hXKplKSWlFNHUFFQcOnx6fSbsQKh8P3gYLMD8PT19jj1I7pYBSE99L3McQ79iM7W39sTrUoN0wYz4E3tF85ZHXb7zEynwsHBkRic+sHBEQNOQDg4YsAJCAdHDDgB4eCIAScgHBwx4ASEgyMGnIBwcMSAExAOjhhwAsLBEQNOQDg4YsAJCAdHDDgB4eCIAScgHBwx4ASEgyMGnIBwcMSAExAOjhhwAsLBEQNOQDg4YsAJCAdHDDgB4eCIAScgHBwx+P8DAAD//5PYFFrBhVFBAAAAAElFTkSuQmCC;fontSize=16;labelPosition=center;align=center;spacing=-10;fontFamily=Helvetica;fontStyle=0;labelBackgroundColor=none;fontColor=#182633;" parent="-sU8y2Q3AdZbQh8XbGMl-1" vertex="1">
                    <mxGeometry x="1340" y="220" width="90" height="90" as="geometry"/>
                </mxCell>
                <mxCell id="27" value="&lt;span style=&quot;font-size: 18px;&quot;&gt;Network&lt;/span&gt;" style="rounded=0;whiteSpace=wrap;html=1;shadow=0;labelBackgroundColor=none;sketch=0;fontSize=18;verticalAlign=top;fillStyle=zigzag;fontFamily=Helvetica;fontStyle=0;strokeWidth=2;strokeColor=#216FF8;opacity=80;fillColor=#4EC4F5;dashed=1;dashPattern=1 1;fontColor=#182633;" parent="-sU8y2Q3AdZbQh8XbGMl-1" vertex="1">
                    <mxGeometry x="1865" y="1060.5" width="1595" height="180" as="geometry"/>
                </mxCell>
                <mxCell id="175" style="edgeStyle=orthogonalEdgeStyle;rounded=0;orthogonalLoop=1;jettySize=auto;html=1;dashed=1;fontFamily=Helvetica;fontSize=14;startArrow=classic;startFill=1;labelBackgroundColor=none;strokeWidth=2;fontColor=#182633;strokeColor=#182633;" parent="-sU8y2Q3AdZbQh8XbGMl-1" source="112" edge="1">
                    <mxGeometry relative="1" as="geometry">
                        <mxPoint x="2140" y="1241" as="targetPoint"/>
                        <Array as="points">
                            <mxPoint x="2140" y="1241"/>
                        </Array>
                    </mxGeometry>
                </mxCell>
                <mxCell id="176" value="Data Access&lt;br&gt;via Private Link" style="edgeLabel;html=1;align=center;verticalAlign=middle;resizable=0;points=[];fontSize=14;fontFamily=Helvetica;labelBackgroundColor=none;fontColor=#182633;" parent="175" vertex="1" connectable="0">
                    <mxGeometry x="0.0386" y="-1" relative="1" as="geometry">
                        <mxPoint x="59" y="-3" as="offset"/>
                    </mxGeometry>
                </mxCell>
                <mxCell id="112" value="&lt;span style=&quot;font-size: 18px&quot;&gt;Storage&lt;/span&gt;" style="rounded=0;whiteSpace=wrap;html=1;shadow=0;labelBackgroundColor=none;sketch=0;fontSize=18;verticalAlign=top;fillStyle=zigzag;fontFamily=Helvetica;fontStyle=0;strokeWidth=2;opacity=80;fillColor=#FC5F57;strokeColor=#FC5F57;fontColor=#182633;dashed=1;dashPattern=1 1;" parent="-sU8y2Q3AdZbQh8XbGMl-1" vertex="1">
                    <mxGeometry x="1865" y="1363.5" width="550" height="180" as="geometry"/>
                </mxCell>
                <mxCell id="177" style="edgeStyle=orthogonalEdgeStyle;rounded=0;orthogonalLoop=1;jettySize=auto;html=1;dashed=1;fontFamily=Helvetica;fontSize=14;startArrow=classic;startFill=1;labelBackgroundColor=none;strokeWidth=2;fontColor=#182633;strokeColor=#182633;" parent="-sU8y2Q3AdZbQh8XbGMl-1" source="113" edge="1">
                    <mxGeometry relative="1" as="geometry">
                        <mxPoint x="2790" y="1240" as="targetPoint"/>
                        <Array as="points">
                            <mxPoint x="2790" y="1240"/>
                        </Array>
                    </mxGeometry>
                </mxCell>
                <mxCell id="178" value="Credentials Access&lt;br&gt;via Private Link" style="edgeLabel;html=1;align=center;verticalAlign=middle;resizable=0;points=[];fontSize=14;fontFamily=Helvetica;labelBackgroundColor=none;fontColor=#182633;" parent="177" vertex="1" connectable="0">
                    <mxGeometry x="0.0252" y="-1" relative="1" as="geometry">
                        <mxPoint x="66" y="-3" as="offset"/>
                    </mxGeometry>
                </mxCell>
                <mxCell id="113" value="&lt;span style=&quot;font-size: 18px&quot;&gt;Credentials&lt;/span&gt;" style="rounded=0;whiteSpace=wrap;html=1;shadow=0;labelBackgroundColor=none;sketch=0;fontSize=18;verticalAlign=top;fillStyle=zigzag;fontFamily=Helvetica;fontStyle=0;strokeWidth=2;opacity=50;fillColor=#FFCC3E;strokeColor=#FFCC3E;fontColor=#182633;dashed=1;dashPattern=1 1;" parent="-sU8y2Q3AdZbQh8XbGMl-1" vertex="1">
                    <mxGeometry x="2515" y="1363.5" width="550" height="180" as="geometry"/>
                </mxCell>
                <mxCell id="160" style="edgeStyle=orthogonalEdgeStyle;rounded=0;orthogonalLoop=1;jettySize=auto;html=1;dashed=1;fontFamily=Helvetica;fontSize=18;startArrow=classic;startFill=1;endArrow=none;endFill=0;labelBackgroundColor=none;strokeWidth=2;fontColor=#182633;strokeColor=#182633;" parent="-sU8y2Q3AdZbQh8XbGMl-1" source="114" target="159" edge="1">
                    <mxGeometry relative="1" as="geometry">
                        <Array as="points">
                            <mxPoint x="2046" y="590"/>
                            <mxPoint x="2046" y="590"/>
                        </Array>
                    </mxGeometry>
                </mxCell>
                <mxCell id="167" value="Batch Processing" style="edgeLabel;html=1;align=center;verticalAlign=middle;resizable=0;points=[];fontSize=14;fontFamily=Helvetica;labelBackgroundColor=none;fontColor=#182633;" parent="160" vertex="1" connectable="0">
                    <mxGeometry x="0.0414" y="1" relative="1" as="geometry">
                        <mxPoint x="65" y="9" as="offset"/>
                    </mxGeometry>
                </mxCell>
                <mxCell id="169" style="edgeStyle=orthogonalEdgeStyle;rounded=0;orthogonalLoop=1;jettySize=auto;html=1;dashed=1;fontFamily=Helvetica;fontSize=14;startArrow=classic;startFill=1;labelBackgroundColor=none;strokeWidth=2;fontColor=#182633;strokeColor=#182633;" parent="-sU8y2Q3AdZbQh8XbGMl-1" source="114" edge="1">
                    <mxGeometry relative="1" as="geometry">
                        <mxPoint x="2046" y="1057" as="targetPoint"/>
                        <Array as="points">
                            <mxPoint x="2046" y="1057"/>
                        </Array>
                    </mxGeometry>
                </mxCell>
                <mxCell id="170" value="Data Loading" style="edgeLabel;html=1;align=center;verticalAlign=middle;resizable=0;points=[];fontSize=14;fontFamily=Helvetica;labelBackgroundColor=none;fontColor=#182633;" parent="169" vertex="1" connectable="0">
                    <mxGeometry x="-0.048" y="-3" relative="1" as="geometry">
                        <mxPoint x="57" y="1" as="offset"/>
                    </mxGeometry>
                </mxCell>
                <mxCell id="114" value="&lt;span style=&quot;font-size: 18px&quot;&gt;Data Orchestration&lt;/span&gt;" style="rounded=0;whiteSpace=wrap;html=1;shadow=0;labelBackgroundColor=none;sketch=0;fontSize=18;verticalAlign=top;fillStyle=zigzag;fontFamily=Helvetica;fontStyle=0;strokeWidth=2;opacity=80;fillColor=#55D397;strokeColor=#55D397;fontColor=#182633;dashed=1;dashPattern=1 1;" parent="-sU8y2Q3AdZbQh8XbGMl-1" vertex="1">
                    <mxGeometry x="1865" y="740" width="361.5" height="200" as="geometry"/>
                </mxCell>
                <mxCell id="263" style="edgeStyle=orthogonalEdgeStyle;rounded=0;orthogonalLoop=1;jettySize=auto;html=1;entryX=0;entryY=0.5;entryDx=0;entryDy=0;dashed=1;fontFamily=Helvetica;fontSize=14;startArrow=none;startFill=0;endArrow=classic;endFill=1;opacity=30;labelBackgroundColor=none;fontColor=#182633;strokeColor=#182633;" parent="-sU8y2Q3AdZbQh8XbGMl-1" source="115" target="245" edge="1">
                    <mxGeometry relative="1" as="geometry"/>
                </mxCell>
                <mxCell id="115" value="&lt;span style=&quot;font-size: 18px&quot;&gt;Data Processing&lt;/span&gt;" style="rounded=0;whiteSpace=wrap;html=1;shadow=0;labelBackgroundColor=none;sketch=0;fontSize=18;verticalAlign=top;fillStyle=zigzag;fontFamily=Helvetica;fontStyle=0;strokeWidth=2;opacity=80;fillColor=#55D397;strokeColor=#55D397;fontColor=#182633;dashed=1;dashPattern=1 1;" parent="-sU8y2Q3AdZbQh8XbGMl-1" vertex="1">
                    <mxGeometry x="2295" y="740" width="770" height="200" as="geometry"/>
                </mxCell>
                <mxCell id="116" value="&lt;span style=&quot;font-size: 18px&quot;&gt;CICD Framework&lt;/span&gt;" style="rounded=0;whiteSpace=wrap;html=1;shadow=0;labelBackgroundColor=none;sketch=0;fontSize=18;verticalAlign=top;fillStyle=zigzag;fillColor=#f5f5f5;opacity=80;fontFamily=Helvetica;fontStyle=0;strokeWidth=2;fontColor=#182633;strokeColor=#216FF8;dashed=1;dashPattern=1 1;" parent="-sU8y2Q3AdZbQh8XbGMl-1" vertex="1">
                    <mxGeometry x="1501.69" y="740.72" width="350" height="800" as="geometry"/>
                </mxCell>
                <mxCell id="LqsbPOSO8fhI4KLYFztt-14" value="Virtual Network" style="html=1;points=[];align=center;image;fontSize=14;image=img/lib/azure2/networking/Virtual_Networks.svg;rounded=0;shadow=0;glass=0;labelBackgroundColor=none;sketch=0;strokeColor=#0E8088;fillColor=#B0E3E6;fontFamily=Helvetica;fontStyle=0;fontColor=#182633;" parent="-sU8y2Q3AdZbQh8XbGMl-1" vertex="1">
                    <mxGeometry x="1910.0000000000002" y="1125.5" width="60" height="50" as="geometry"/>
                </mxCell>
                <mxCell id="119" value="Data Lake&lt;br style=&quot;font-size: 14px;&quot;&gt;Storage Account" style="html=1;points=[];align=center;image;fontSize=14;image=img/lib/azure2/storage/Storage_Accounts.svg;rounded=0;dashed=1;labelBackgroundColor=none;sketch=0;fillColor=none;fontFamily=Helvetica;fontColor=#182633;" parent="-sU8y2Q3AdZbQh8XbGMl-1" vertex="1">
                    <mxGeometry x="1905" y="1426.75" width="50" height="50" as="geometry"/>
                </mxCell>
                <mxCell id="120" value="Data Lake&lt;br&gt;Storage Gen 2" style="html=1;points=[];align=center;image;fontSize=14;image=img/lib/mscae/Data_Lake.svg;rounded=0;dashed=1;labelBackgroundColor=none;sketch=0;fillColor=none;fontFamily=Helvetica;aspect=fixed;fontColor=#182633;" parent="-sU8y2Q3AdZbQh8XbGMl-1" vertex="1">
                    <mxGeometry x="2110" y="1426.75" width="50" height="41.67" as="geometry"/>
                </mxCell>
                <mxCell id="121" value="Firewall" style="whiteSpace=wrap;html=1;labelPosition=center;verticalLabelPosition=middle;align=center;verticalAlign=top;sketch=0;fillStyle=zigzag;fontSize=14;fontFamily=Helvetica;labelBackgroundColor=none;fillColor=#FC5F57;fontColor=#FFFFFF;" parent="-sU8y2Q3AdZbQh8XbGMl-1" vertex="1">
                    <mxGeometry x="2208.5" y="1388.5" width="185" height="30" as="geometry"/>
                </mxCell>
                <mxCell id="122" value="IAM Access Control" style="whiteSpace=wrap;html=1;labelPosition=center;verticalLabelPosition=middle;align=center;verticalAlign=top;sketch=0;fillStyle=zigzag;fontSize=14;fontFamily=Helvetica;labelBackgroundColor=none;fillColor=#FC5F57;fontColor=#FFFFFF;" parent="-sU8y2Q3AdZbQh8XbGMl-1" vertex="1">
                    <mxGeometry x="2208.5" y="1438.5" width="185" height="30" as="geometry"/>
                </mxCell>
                <mxCell id="123" value="Storage Containers" style="whiteSpace=wrap;html=1;labelPosition=center;verticalLabelPosition=middle;align=center;verticalAlign=top;sketch=0;fillStyle=zigzag;fontSize=14;fontFamily=Helvetica;labelBackgroundColor=none;fillColor=#FC5F57;fontColor=#FFFFFF;" parent="-sU8y2Q3AdZbQh8XbGMl-1" vertex="1">
                    <mxGeometry x="2208.5" y="1488.5" width="185" height="30" as="geometry"/>
                </mxCell>
                <mxCell id="124" value="Credentials Key Vault" style="html=1;points=[];align=center;image;fontSize=14;image=img/lib/mscae/Key_Vaults.svg;sketch=0;labelBackgroundColor=none;fontFamily=Helvetica;aspect=fixed;fontColor=#182633;" parent="-sU8y2Q3AdZbQh8XbGMl-1" vertex="1">
                    <mxGeometry x="2580" y="1439.22" width="48.9" height="40.78" as="geometry"/>
                </mxCell>
                <mxCell id="125" value="Firewall" style="whiteSpace=wrap;html=1;labelPosition=center;verticalLabelPosition=middle;align=center;verticalAlign=top;sketch=0;fillStyle=zigzag;fontSize=14;fontFamily=Helvetica;labelBackgroundColor=none;fillColor=#FFCC3E;fontColor=#182633;" parent="-sU8y2Q3AdZbQh8XbGMl-1" vertex="1">
                    <mxGeometry x="2865" y="1385.25" width="185" height="30" as="geometry"/>
                </mxCell>
                <mxCell id="126" value="IAM Access Control" style="whiteSpace=wrap;html=1;labelPosition=center;verticalLabelPosition=middle;align=center;verticalAlign=top;sketch=0;fillStyle=zigzag;fontSize=14;fontFamily=Helvetica;labelBackgroundColor=none;fillColor=#FFCC3E;fontColor=#182633;" parent="-sU8y2Q3AdZbQh8XbGMl-1" vertex="1">
                    <mxGeometry x="2865" y="1436.75" width="185" height="30" as="geometry"/>
                </mxCell>
                <mxCell id="127" value="Retention Policies" style="whiteSpace=wrap;html=1;labelPosition=center;verticalLabelPosition=middle;align=center;verticalAlign=top;sketch=0;fillStyle=zigzag;fontSize=14;fontFamily=Helvetica;labelBackgroundColor=none;fillColor=#FFCC3E;fontColor=#182633;" parent="-sU8y2Q3AdZbQh8XbGMl-1" vertex="1">
                    <mxGeometry x="2865" y="1491.75" width="185" height="30" as="geometry"/>
                </mxCell>
                <mxCell id="128" value="Data Factory" style="html=1;points=[];align=center;image;fontSize=14;image=img/lib/azure2/databases/Data_Factory.svg;fontFamily=Helvetica;labelBackgroundColor=none;fontColor=#182633;" parent="-sU8y2Q3AdZbQh8XbGMl-1" vertex="1">
                    <mxGeometry x="2113.5" y="826.5" width="60" height="50" as="geometry"/>
                </mxCell>
                <mxCell id="130" style="edgeStyle=orthogonalEdgeStyle;rounded=0;orthogonalLoop=1;jettySize=auto;html=1;fontFamily=Helvetica;fontSize=14;dashed=1;labelBackgroundColor=none;fontColor=#182633;" parent="-sU8y2Q3AdZbQh8XbGMl-1" source="129" target="128" edge="1">
                    <mxGeometry relative="1" as="geometry"/>
                </mxCell>
                <mxCell id="168" value="Trigger" style="edgeLabel;html=1;align=center;verticalAlign=middle;resizable=0;points=[];fontSize=14;fontFamily=Helvetica;labelBackgroundColor=none;fontColor=#182633;" parent="130" vertex="1" connectable="0">
                    <mxGeometry x="-0.1275" relative="1" as="geometry">
                        <mxPoint x="4" y="-11" as="offset"/>
                    </mxGeometry>
                </mxCell>
                <mxCell id="129" value="Schedules" style="pointerEvents=1;shadow=0;dashed=0;html=1;strokeColor=none;fillColor=#505050;labelPosition=center;verticalLabelPosition=bottom;verticalAlign=top;outlineConnect=0;align=center;shape=mxgraph.office.concepts.clock;fontSize=14;fontFamily=Helvetica;labelBackgroundColor=none;fontColor=#182633;" parent="-sU8y2Q3AdZbQh8XbGMl-1" vertex="1">
                    <mxGeometry x="1930" y="826.5" width="55" height="50" as="geometry"/>
                </mxCell>
                <mxCell id="131" value="Databricks&lt;br&gt;Engineering Workspace" style="html=1;points=[];align=center;image;fontSize=14;image=img/lib/azure2/analytics/Azure_Databricks.svg;labelBackgroundColor=none;fontFamily=Helvetica;fontColor=#182633;" parent="-sU8y2Q3AdZbQh8XbGMl-1" vertex="1">
                    <mxGeometry x="2367.5" y="781.5" width="60" height="50" as="geometry"/>
                </mxCell>
                <mxCell id="132" value="Databricks&lt;br&gt;Analytics Workspace" style="html=1;points=[];align=center;image;fontSize=14;image=img/lib/azure2/analytics/Azure_Databricks.svg;labelBackgroundColor=none;fontFamily=Helvetica;fontColor=#182633;" parent="-sU8y2Q3AdZbQh8XbGMl-1" vertex="1">
                    <mxGeometry x="2927.5" y="781.5" width="60" height="50" as="geometry"/>
                </mxCell>
                <mxCell id="180" style="edgeStyle=orthogonalEdgeStyle;rounded=0;orthogonalLoop=1;jettySize=auto;html=1;dashed=1;fontFamily=Helvetica;fontSize=14;startArrow=none;startFill=0;labelBackgroundColor=none;strokeWidth=2;fontColor=#182633;strokeColor=#182633;" parent="-sU8y2Q3AdZbQh8XbGMl-1" source="133" edge="1">
                    <mxGeometry relative="1" as="geometry">
                        <mxPoint x="2771" y="1061" as="targetPoint"/>
                        <Array as="points">
                            <mxPoint x="2771" y="992"/>
                            <mxPoint x="2771" y="1061"/>
                        </Array>
                    </mxGeometry>
                </mxCell>
                <mxCell id="181" value="On-Demand&lt;br&gt;Compute Resources" style="edgeLabel;html=1;align=center;verticalAlign=middle;resizable=0;points=[];fontSize=14;fontFamily=Helvetica;labelBackgroundColor=none;fontColor=#182633;" parent="180" vertex="1" connectable="0">
                    <mxGeometry x="-0.1125" relative="1" as="geometry">
                        <mxPoint x="69" y="7" as="offset"/>
                    </mxGeometry>
                </mxCell>
                <mxCell id="133" value="Clusters" style="whiteSpace=wrap;html=1;shadow=0;labelBackgroundColor=none;sketch=0;fontSize=14;fontFamily=Helvetica;fillColor=#55D397;fontColor=#182633;" parent="-sU8y2Q3AdZbQh8XbGMl-1" vertex="1">
                    <mxGeometry x="2683" y="893.5" width="175" height="30" as="geometry"/>
                </mxCell>
                <mxCell id="134" value="" style="outlineConnect=0;gradientColor=none;strokeColor=#232F3E;dashed=0;verticalLabelPosition=bottom;verticalAlign=top;align=center;html=1;fontSize=12;fontStyle=0;aspect=fixed;shape=mxgraph.aws4.resourceIcon;resIcon=mxgraph.aws4.cluster;shadow=0;labelBackgroundColor=none;sketch=0;fillColor=none;fontFamily=Helvetica;fontColor=#182633;" parent="-sU8y2Q3AdZbQh8XbGMl-1" vertex="1">
                    <mxGeometry x="2690" y="896" width="25" height="25" as="geometry"/>
                </mxCell>
                <mxCell id="135" value="Notebooks" style="whiteSpace=wrap;html=1;shadow=0;labelBackgroundColor=none;sketch=0;fontSize=14;fontFamily=Helvetica;fillColor=#55D397;fontColor=#182633;" parent="-sU8y2Q3AdZbQh8XbGMl-1" vertex="1">
                    <mxGeometry x="2870" y="893.5" width="175" height="30" as="geometry"/>
                </mxCell>
                <mxCell id="136" value="" style="outlineConnect=0;gradientColor=none;strokeColor=none;dashed=0;verticalLabelPosition=bottom;verticalAlign=top;align=center;html=1;fontSize=12;fontStyle=0;aspect=fixed;pointerEvents=1;shape=mxgraph.aws4.notebook;shadow=0;labelBackgroundColor=none;sketch=0;fillColor=#13344C;fontFamily=Helvetica;fontColor=#182633;" parent="-sU8y2Q3AdZbQh8XbGMl-1" vertex="1">
                    <mxGeometry x="2877" y="899" width="17.44" height="20" as="geometry"/>
                </mxCell>
                <mxCell id="171" style="edgeStyle=orthogonalEdgeStyle;rounded=0;orthogonalLoop=1;jettySize=auto;html=1;dashed=1;fontFamily=Helvetica;fontSize=14;startArrow=classic;startFill=1;labelBackgroundColor=none;strokeWidth=2;fontColor=#182633;strokeColor=#182633;" parent="-sU8y2Q3AdZbQh8XbGMl-1" source="137" edge="1">
                    <mxGeometry relative="1" as="geometry">
                        <mxPoint x="2398" y="1060" as="targetPoint"/>
                        <Array as="points">
                            <mxPoint x="2398" y="1060"/>
                        </Array>
                    </mxGeometry>
                </mxCell>
                <mxCell id="172" value="Data Access" style="edgeLabel;html=1;align=center;verticalAlign=middle;resizable=0;points=[];fontSize=14;fontFamily=Helvetica;labelBackgroundColor=none;fontColor=#182633;" parent="171" vertex="1" connectable="0">
                    <mxGeometry x="0.0228" y="-2" relative="1" as="geometry">
                        <mxPoint x="49" as="offset"/>
                    </mxGeometry>
                </mxCell>
                <mxCell id="137" value="Storage Mounts" style="whiteSpace=wrap;html=1;shadow=0;labelBackgroundColor=none;sketch=0;fontSize=14;fontFamily=Helvetica;fillColor=#55D397;fontColor=#182633;" parent="-sU8y2Q3AdZbQh8XbGMl-1" vertex="1">
                    <mxGeometry x="2310" y="892.75" width="175" height="30" as="geometry"/>
                </mxCell>
                <mxCell id="138" value="" style="verticalLabelPosition=bottom;html=1;verticalAlign=top;align=center;strokeColor=none;shape=mxgraph.azure.storage_blob;shadow=0;labelBackgroundColor=none;sketch=0;fontSize=13;fillColor=#13344C;fontFamily=Helvetica;fontColor=#182633;" parent="-sU8y2Q3AdZbQh8XbGMl-1" vertex="1">
                    <mxGeometry x="2317.5" y="901" width="20" height="15" as="geometry"/>
                </mxCell>
                <mxCell id="140" value="Private Endpoints" style="aspect=fixed;html=1;points=[];align=center;image;fontSize=14;image=img/lib/azure2/networking/Private_Endpoint.svg;labelBackgroundColor=none;fontFamily=Helvetica;fontColor=#182633;" parent="-sU8y2Q3AdZbQh8XbGMl-1" vertex="1">
                    <mxGeometry x="2050" y="1118.5" width="60" height="55" as="geometry"/>
                </mxCell>
                <mxCell id="182" style="edgeStyle=orthogonalEdgeStyle;rounded=0;orthogonalLoop=1;jettySize=auto;html=1;dashed=1;fontFamily=Helvetica;fontSize=14;startArrow=classic;startFill=1;labelBackgroundColor=none;strokeWidth=2;fontColor=#182633;strokeColor=#182633;" parent="-sU8y2Q3AdZbQh8XbGMl-1" source="143" edge="1">
                    <mxGeometry relative="1" as="geometry">
                        <mxPoint x="2585" y="1062" as="targetPoint"/>
                        <Array as="points">
                            <mxPoint x="2585" y="992"/>
                            <mxPoint x="2585" y="1062"/>
                        </Array>
                    </mxGeometry>
                </mxCell>
                <mxCell id="183" value="Credential Access" style="edgeLabel;html=1;align=center;verticalAlign=middle;resizable=0;points=[];fontSize=14;fontFamily=Helvetica;labelBackgroundColor=none;fontColor=#182633;" parent="182" vertex="1" connectable="0">
                    <mxGeometry x="-0.0038" relative="1" as="geometry">
                        <mxPoint x="70" y="7" as="offset"/>
                    </mxGeometry>
                </mxCell>
                <mxCell id="143" value="Access Tokens" style="whiteSpace=wrap;html=1;shadow=0;labelBackgroundColor=none;sketch=0;fontSize=14;fontFamily=Helvetica;fillColor=#55D397;fontColor=#182633;" parent="-sU8y2Q3AdZbQh8XbGMl-1" vertex="1">
                    <mxGeometry x="2497" y="892.75" width="175" height="30" as="geometry"/>
                </mxCell>
                <mxCell id="144" value="" style="outlineConnect=0;gradientColor=none;strokeColor=#232F3E;dashed=0;verticalLabelPosition=bottom;verticalAlign=top;align=center;html=1;fontSize=12;fontStyle=0;aspect=fixed;shape=mxgraph.aws4.resourceIcon;resIcon=mxgraph.aws4.saml_token;shadow=0;labelBackgroundColor=none;sketch=0;fillColor=none;fontFamily=Helvetica;fontColor=#182633;" parent="-sU8y2Q3AdZbQh8XbGMl-1" vertex="1">
                    <mxGeometry x="2510" y="899" width="17" height="17" as="geometry"/>
                </mxCell>
                <mxCell id="151" value="Databricks Worker Subnets" style="whiteSpace=wrap;html=1;labelPosition=center;verticalLabelPosition=middle;align=center;verticalAlign=top;sketch=0;fillStyle=zigzag;fontSize=16;fontFamily=Helvetica;opacity=10;labelBackgroundColor=none;fontColor=#182633;strokeColor=#4EC4F5;" parent="-sU8y2Q3AdZbQh8XbGMl-1" vertex="1">
                    <mxGeometry x="2290" y="1097.5" width="775" height="127.5" as="geometry"/>
                </mxCell>
                <mxCell id="157" value="" style="group;fontSize=14;labelBackgroundColor=none;fontColor=#182633;" parent="-sU8y2Q3AdZbQh8XbGMl-1" vertex="1" connectable="0">
                    <mxGeometry x="2518.5" y="1143" width="75" height="60" as="geometry"/>
                </mxCell>
                <mxCell id="152" value="Worker" style="html=1;points=[];align=center;image;fontSize=12;image=img/lib/mscae/Databricks.svg;labelBackgroundColor=none;fontFamily=Helvetica;fontColor=#182633;" parent="157" vertex="1">
                    <mxGeometry x="17.5" y="-6.5" width="50" height="50" as="geometry"/>
                </mxCell>
                <mxCell id="150" value="NSG" style="html=1;points=[];align=center;image;fontSize=14;image=img/lib/azure2/networking/Network_Security_Groups.svg;labelBackgroundColor=none;fontFamily=Helvetica;fontColor=#182633;" parent="-sU8y2Q3AdZbQh8XbGMl-1" vertex="1">
                    <mxGeometry x="2304" y="1087" width="45" height="31.5" as="geometry"/>
                </mxCell>
                <mxCell id="247" style="edgeStyle=orthogonalEdgeStyle;rounded=0;orthogonalLoop=1;jettySize=auto;html=1;exitX=0.75;exitY=1;exitDx=0;exitDy=0;entryX=0.116;entryY=0.003;entryDx=0;entryDy=0;entryPerimeter=0;dashed=1;fontFamily=Helvetica;fontSize=14;startArrow=classic;startFill=1;endArrow=classic;endFill=1;labelBackgroundColor=none;strokeWidth=2;fontColor=#182633;strokeColor=#182633;" parent="-sU8y2Q3AdZbQh8XbGMl-1" source="159" target="115" edge="1">
                    <mxGeometry relative="1" as="geometry"/>
                </mxCell>
                <mxCell id="248" value="Data Streaming" style="edgeLabel;html=1;align=center;verticalAlign=middle;resizable=0;points=[];fontSize=14;fontFamily=Helvetica;labelBackgroundColor=none;fontColor=#182633;" parent="247" vertex="1" connectable="0">
                    <mxGeometry x="0.0673" y="1" relative="1" as="geometry">
                        <mxPoint x="60" y="-2" as="offset"/>
                    </mxGeometry>
                </mxCell>
                <mxCell id="159" value="&lt;span style=&quot;font-size: 18px&quot;&gt;Data Sources&lt;/span&gt;" style="rounded=0;whiteSpace=wrap;html=1;shadow=0;labelBackgroundColor=none;sketch=0;fontSize=18;verticalAlign=top;fillStyle=zigzag;fontFamily=Helvetica;fontStyle=0;strokeWidth=2;opacity=80;fillColor=#FC5F57;strokeColor=#FC5F57;fontColor=#182633;dashed=1;dashPattern=1 1;" parent="-sU8y2Q3AdZbQh8XbGMl-1" vertex="1">
                    <mxGeometry x="1866.75" y="429.55" width="690" height="120" as="geometry"/>
                </mxCell>
                <mxCell id="161" value="FTP/SFTP" style="outlineConnect=0;gradientColor=none;fillColor=#116D5B;strokeColor=none;dashed=0;verticalLabelPosition=bottom;verticalAlign=top;align=center;html=1;fontSize=14;fontStyle=0;aspect=fixed;shape=mxgraph.aws4.transfer_for_ftp_resource;labelBackgroundColor=none;fontFamily=Helvetica;fontColor=#182633;" parent="-sU8y2Q3AdZbQh8XbGMl-1" vertex="1">
                    <mxGeometry x="1971.75" y="465.05" width="38" height="39" as="geometry"/>
                </mxCell>
                <mxCell id="163" value="APIs" style="html=1;fillColor=#5184F3;strokeColor=none;verticalAlign=top;labelPosition=center;verticalLabelPosition=bottom;align=center;spacingTop=-6;fontSize=14;fontStyle=0;shape=mxgraph.gcp2.hexIcon;prIcon=cloud_apis;labelBackgroundColor=none;fontFamily=Helvetica;fontColor=#182633;" parent="-sU8y2Q3AdZbQh8XbGMl-1" vertex="1">
                    <mxGeometry x="2072.75" y="465.05" width="60" height="49" as="geometry"/>
                </mxCell>
                <mxCell id="164" value="Amazon S3" style="points=[[0,0,0],[0.25,0,0],[0.5,0,0],[0.75,0,0],[1,0,0],[0,1,0],[0.25,1,0],[0.5,1,0],[0.75,1,0],[1,1,0],[0,0.25,0],[0,0.5,0],[0,0.75,0],[1,0.25,0],[1,0.5,0],[1,0.75,0]];outlineConnect=0;gradientColor=#60A337;gradientDirection=north;fillColor=#277116;strokeColor=#ffffff;dashed=0;verticalLabelPosition=bottom;verticalAlign=top;align=center;html=1;fontSize=14;fontStyle=0;aspect=fixed;shape=mxgraph.aws4.resourceIcon;resIcon=mxgraph.aws4.s3;labelBackgroundColor=none;fontFamily=Helvetica;fontColor=#182633;" parent="-sU8y2Q3AdZbQh8XbGMl-1" vertex="1">
                    <mxGeometry x="2193.75" y="465.05" width="39.5" height="39.5" as="geometry"/>
                </mxCell>
                <mxCell id="165" value="Azure Blob" style="verticalLabelPosition=bottom;html=1;verticalAlign=top;align=center;strokeColor=none;fillColor=#00BEF2;shape=mxgraph.azure.storage_blob;labelBackgroundColor=none;fontFamily=Helvetica;fontSize=14;fontColor=#182633;" parent="-sU8y2Q3AdZbQh8XbGMl-1" vertex="1">
                    <mxGeometry x="2300.75" y="465.05" width="50" height="39.5" as="geometry"/>
                </mxCell>
                <mxCell id="166" value="More..." style="html=1;verticalLabelPosition=bottom;align=center;labelBackgroundColor=none;verticalAlign=top;strokeWidth=2;strokeColor=#0080F0;shadow=0;dashed=0;shape=mxgraph.ios7.icons.data;fontFamily=Helvetica;fontSize=14;fontColor=#182633;" parent="-sU8y2Q3AdZbQh8XbGMl-1" vertex="1">
                    <mxGeometry x="2421.75" y="465.05" width="30" height="39.1" as="geometry"/>
                </mxCell>
                <mxCell id="186" value="Azure DevOps" style="aspect=fixed;html=1;points=[];align=center;image;fontSize=14;image=img/lib/azure2/devops/Azure_DevOps.svg;labelBackgroundColor=none;fontFamily=Helvetica;strokeColor=#3399FF;fontColor=#182633;" parent="-sU8y2Q3AdZbQh8XbGMl-1" vertex="1">
                    <mxGeometry x="1623" y="826.5" width="64" height="64" as="geometry"/>
                </mxCell>
                <mxCell id="192" value="Azure Databricks" style="whiteSpace=wrap;html=1;labelPosition=center;verticalLabelPosition=middle;align=center;verticalAlign=top;sketch=0;fillStyle=zigzag;fontSize=14;fontFamily=Helvetica;labelBackgroundColor=none;opacity=40;fontColor=#182633;" parent="-sU8y2Q3AdZbQh8XbGMl-1" vertex="1">
                    <mxGeometry x="1526.25" y="1157" width="257.5" height="133" as="geometry"/>
                </mxCell>
                <mxCell id="193" value="Repo" style="aspect=fixed;html=1;points=[];align=left;image;fontSize=14;image=img/lib/mscae/Azure_Repos.svg;labelBackgroundColor=none;fontFamily=Helvetica;strokeColor=#3399FF;labelPosition=right;verticalLabelPosition=middle;verticalAlign=middle;fontColor=#182633;" parent="-sU8y2Q3AdZbQh8XbGMl-1" vertex="1">
                    <mxGeometry x="1543.81" y="1182" width="27" height="30" as="geometry"/>
                </mxCell>
                <mxCell id="194" value="Pipeline" style="html=1;points=[];align=center;image;fontSize=14;image=img/lib/mscae/Azure_Pipelines.svg;labelBackgroundColor=none;fontFamily=Helvetica;strokeColor=#3399FF;fontColor=#182633;" parent="-sU8y2Q3AdZbQh8XbGMl-1" vertex="1">
                    <mxGeometry x="1541.81" y="1230" width="27" height="30" as="geometry"/>
                </mxCell>
                <mxCell id="197" style="edgeStyle=orthogonalEdgeStyle;rounded=0;orthogonalLoop=1;jettySize=auto;html=1;dashed=1;fontFamily=Helvetica;fontSize=14;startArrow=none;startFill=0;labelBackgroundColor=none;fontColor=#182633;" parent="-sU8y2Q3AdZbQh8XbGMl-1" source="195" target="196" edge="1">
                    <mxGeometry relative="1" as="geometry"/>
                </mxCell>
                <mxCell id="195" value="Dev" style="whiteSpace=wrap;html=1;labelPosition=center;verticalLabelPosition=middle;align=center;verticalAlign=top;sketch=0;fillStyle=zigzag;fontSize=14;fontFamily=Helvetica;labelBackgroundColor=none;fillColor=none;fontColor=#182633;" parent="-sU8y2Q3AdZbQh8XbGMl-1" vertex="1">
                    <mxGeometry x="1594.62" y="1241.76" width="45.38" height="27.48" as="geometry"/>
                </mxCell>
                <mxCell id="199" style="edgeStyle=orthogonalEdgeStyle;rounded=0;orthogonalLoop=1;jettySize=auto;html=1;dashed=1;fontFamily=Helvetica;fontSize=14;startArrow=none;startFill=0;labelBackgroundColor=none;fontColor=#182633;" parent="-sU8y2Q3AdZbQh8XbGMl-1" source="196" target="198" edge="1">
                    <mxGeometry relative="1" as="geometry"/>
                </mxCell>
                <mxCell id="196" value="Test" style="whiteSpace=wrap;html=1;labelPosition=center;verticalLabelPosition=middle;align=center;verticalAlign=top;sketch=0;fillStyle=zigzag;fontSize=14;fontFamily=Helvetica;labelBackgroundColor=none;fillColor=none;fontColor=#182633;" parent="-sU8y2Q3AdZbQh8XbGMl-1" vertex="1">
                    <mxGeometry x="1654" y="1241.76" width="45.38" height="27.48" as="geometry"/>
                </mxCell>
                <mxCell id="198" value="Prod" style="whiteSpace=wrap;html=1;labelPosition=center;verticalLabelPosition=middle;align=center;verticalAlign=top;sketch=0;fillStyle=zigzag;fontSize=14;fontFamily=Helvetica;labelBackgroundColor=none;fillColor=none;fontColor=#182633;" parent="-sU8y2Q3AdZbQh8XbGMl-1" vertex="1">
                    <mxGeometry x="1712.62" y="1241.76" width="45.38" height="27.48" as="geometry"/>
                </mxCell>
                <mxCell id="200" value="Azure Data Factory" style="whiteSpace=wrap;html=1;labelPosition=center;verticalLabelPosition=middle;align=center;verticalAlign=top;sketch=0;fillStyle=zigzag;fontSize=14;fontFamily=Helvetica;labelBackgroundColor=none;opacity=40;fontColor=#182633;" parent="-sU8y2Q3AdZbQh8XbGMl-1" vertex="1">
                    <mxGeometry x="1526.25" y="955.5" width="257.5" height="133" as="geometry"/>
                </mxCell>
                <mxCell id="201" value="Repo" style="aspect=fixed;html=1;points=[];align=left;image;fontSize=14;image=img/lib/mscae/Azure_Repos.svg;labelBackgroundColor=none;fontFamily=Helvetica;strokeColor=#3399FF;labelPosition=right;verticalLabelPosition=middle;verticalAlign=middle;fontColor=#182633;" parent="-sU8y2Q3AdZbQh8XbGMl-1" vertex="1">
                    <mxGeometry x="1543.81" y="980.5" width="27" height="30" as="geometry"/>
                </mxCell>
                <mxCell id="202" value="Pipeline" style="html=1;points=[];align=center;image;fontSize=14;image=img/lib/mscae/Azure_Pipelines.svg;labelBackgroundColor=none;fontFamily=Helvetica;strokeColor=#3399FF;fontColor=#182633;" parent="-sU8y2Q3AdZbQh8XbGMl-1" vertex="1">
                    <mxGeometry x="1543.81" y="1033.5" width="27" height="30" as="geometry"/>
                </mxCell>
                <mxCell id="203" style="edgeStyle=orthogonalEdgeStyle;rounded=0;orthogonalLoop=1;jettySize=auto;html=1;dashed=1;fontFamily=Helvetica;fontSize=14;startArrow=none;startFill=0;labelBackgroundColor=none;fontColor=#182633;" parent="-sU8y2Q3AdZbQh8XbGMl-1" source="204" target="206" edge="1">
                    <mxGeometry relative="1" as="geometry"/>
                </mxCell>
                <mxCell id="204" value="Dev" style="whiteSpace=wrap;html=1;labelPosition=center;verticalLabelPosition=middle;align=center;verticalAlign=top;sketch=0;fillStyle=zigzag;fontSize=14;fontFamily=Helvetica;labelBackgroundColor=none;fillColor=none;fontColor=#182633;" parent="-sU8y2Q3AdZbQh8XbGMl-1" vertex="1">
                    <mxGeometry x="1594.62" y="1040.26" width="45.38" height="27.48" as="geometry"/>
                </mxCell>
                <mxCell id="205" style="edgeStyle=orthogonalEdgeStyle;rounded=0;orthogonalLoop=1;jettySize=auto;html=1;dashed=1;fontFamily=Helvetica;fontSize=14;startArrow=none;startFill=0;labelBackgroundColor=none;fontColor=#182633;" parent="-sU8y2Q3AdZbQh8XbGMl-1" source="206" target="207" edge="1">
                    <mxGeometry relative="1" as="geometry"/>
                </mxCell>
                <mxCell id="206" value="Test" style="whiteSpace=wrap;html=1;labelPosition=center;verticalLabelPosition=middle;align=center;verticalAlign=top;sketch=0;fillStyle=zigzag;fontSize=14;fontFamily=Helvetica;labelBackgroundColor=none;fillColor=none;fontColor=#182633;" parent="-sU8y2Q3AdZbQh8XbGMl-1" vertex="1">
                    <mxGeometry x="1654" y="1040.26" width="45.38" height="27.48" as="geometry"/>
                </mxCell>
                <mxCell id="207" value="Prod" style="whiteSpace=wrap;html=1;labelPosition=center;verticalLabelPosition=middle;align=center;verticalAlign=top;sketch=0;fillStyle=zigzag;fontSize=14;fontFamily=Helvetica;labelBackgroundColor=none;fillColor=none;fontColor=#182633;" parent="-sU8y2Q3AdZbQh8XbGMl-1" vertex="1">
                    <mxGeometry x="1712.62" y="1040.26" width="45.38" height="27.48" as="geometry"/>
                </mxCell>
                <mxCell id="208" value="Data Build Tool" style="whiteSpace=wrap;html=1;labelPosition=center;verticalLabelPosition=middle;align=center;verticalAlign=top;sketch=0;fillStyle=zigzag;fontSize=14;fontFamily=Helvetica;labelBackgroundColor=none;opacity=40;fontColor=#182633;" parent="-sU8y2Q3AdZbQh8XbGMl-1" vertex="1">
                    <mxGeometry x="1526.25" y="1358.75" width="257.5" height="133" as="geometry"/>
                </mxCell>
                <mxCell id="209" value="Repo" style="aspect=fixed;html=1;points=[];align=left;image;fontSize=14;image=img/lib/mscae/Azure_Repos.svg;labelBackgroundColor=none;fontFamily=Helvetica;strokeColor=#3399FF;labelPosition=right;verticalLabelPosition=middle;verticalAlign=middle;fontColor=#182633;" parent="-sU8y2Q3AdZbQh8XbGMl-1" vertex="1">
                    <mxGeometry x="1543.81" y="1383.75" width="27" height="30" as="geometry"/>
                </mxCell>
                <mxCell id="210" value="Pipeline" style="html=1;points=[];align=center;image;fontSize=14;image=img/lib/mscae/Azure_Pipelines.svg;labelBackgroundColor=none;fontFamily=Helvetica;strokeColor=#3399FF;fontColor=#182633;" parent="-sU8y2Q3AdZbQh8XbGMl-1" vertex="1">
                    <mxGeometry x="1543.81" y="1437.25" width="27" height="30" as="geometry"/>
                </mxCell>
                <mxCell id="211" style="edgeStyle=orthogonalEdgeStyle;rounded=0;orthogonalLoop=1;jettySize=auto;html=1;dashed=1;fontFamily=Helvetica;fontSize=14;startArrow=none;startFill=0;labelBackgroundColor=none;fontColor=#182633;" parent="-sU8y2Q3AdZbQh8XbGMl-1" source="212" target="214" edge="1">
                    <mxGeometry relative="1" as="geometry"/>
                </mxCell>
                <mxCell id="212" value="Dev" style="whiteSpace=wrap;html=1;labelPosition=center;verticalLabelPosition=middle;align=center;verticalAlign=top;sketch=0;fillStyle=zigzag;fontSize=14;fontFamily=Helvetica;labelBackgroundColor=none;fillColor=none;fontColor=#182633;" parent="-sU8y2Q3AdZbQh8XbGMl-1" vertex="1">
                    <mxGeometry x="1594.62" y="1443.51" width="45.38" height="27.48" as="geometry"/>
                </mxCell>
                <mxCell id="213" style="edgeStyle=orthogonalEdgeStyle;rounded=0;orthogonalLoop=1;jettySize=auto;html=1;dashed=1;fontFamily=Helvetica;fontSize=14;startArrow=none;startFill=0;labelBackgroundColor=none;fontColor=#182633;" parent="-sU8y2Q3AdZbQh8XbGMl-1" source="214" target="215" edge="1">
                    <mxGeometry relative="1" as="geometry"/>
                </mxCell>
                <mxCell id="214" value="Test" style="whiteSpace=wrap;html=1;labelPosition=center;verticalLabelPosition=middle;align=center;verticalAlign=top;sketch=0;fillStyle=zigzag;fontSize=14;fontFamily=Helvetica;labelBackgroundColor=none;fillColor=none;fontColor=#182633;" parent="-sU8y2Q3AdZbQh8XbGMl-1" vertex="1">
                    <mxGeometry x="1654" y="1443.51" width="45.38" height="27.48" as="geometry"/>
                </mxCell>
                <mxCell id="215" value="Prod" style="whiteSpace=wrap;html=1;labelPosition=center;verticalLabelPosition=middle;align=center;verticalAlign=top;sketch=0;fillStyle=zigzag;fontSize=14;fontFamily=Helvetica;labelBackgroundColor=none;fillColor=none;fontColor=#182633;" parent="-sU8y2Q3AdZbQh8XbGMl-1" vertex="1">
                    <mxGeometry x="1712.62" y="1443.51" width="45.38" height="27.48" as="geometry"/>
                </mxCell>
                <mxCell id="218" value="&lt;span style=&quot;font-size: 18px&quot;&gt;Identity and Access Management&lt;/span&gt;" style="rounded=0;whiteSpace=wrap;html=1;shadow=0;labelBackgroundColor=none;sketch=0;fontSize=18;verticalAlign=top;fillStyle=zigzag;fontFamily=Helvetica;fontStyle=0;opacity=80;dashed=1;strokeWidth=2;strokeColor=#4EC4F5;dashPattern=1 1;fillColor=#216FF8;fontColor=#FFFFFF;" parent="-sU8y2Q3AdZbQh8XbGMl-1" vertex="1">
                    <mxGeometry x="3110" y="1360" width="350" height="560" as="geometry"/>
                </mxCell>
                <mxCell id="222" value="Role Based Access Control" style="whiteSpace=wrap;html=1;labelPosition=center;verticalLabelPosition=middle;align=center;verticalAlign=top;sketch=0;fillStyle=zigzag;fontSize=16;fontFamily=Helvetica;labelBackgroundColor=none;opacity=20;fontColor=#FFFFFF;" parent="-sU8y2Q3AdZbQh8XbGMl-1" vertex="1">
                    <mxGeometry x="3152.5" y="1524" width="260" height="178.5" as="geometry"/>
                </mxCell>
                <mxCell id="223" value="Analysts" style="aspect=fixed;html=1;points=[];align=center;image;fontSize=13;image=img/lib/azure2/management_governance/User_Privacy.svg;rounded=0;dashed=1;labelBackgroundColor=none;sketch=0;fillColor=none;fontFamily=Helvetica;fontColor=#FFFFFF;" parent="-sU8y2Q3AdZbQh8XbGMl-1" vertex="1">
                    <mxGeometry x="3326.52" y="1612.5" width="49.88" height="53" as="geometry"/>
                </mxCell>
                <mxCell id="224" value="Engineers" style="aspect=fixed;html=1;points=[];align=center;image;fontSize=13;image=img/lib/azure2/management_governance/User_Privacy.svg;rounded=0;dashed=1;labelBackgroundColor=none;sketch=0;fillColor=none;fontFamily=Helvetica;fontColor=#FFFFFF;" parent="-sU8y2Q3AdZbQh8XbGMl-1" vertex="1">
                    <mxGeometry x="3188.6" y="1612.5" width="49.88" height="53" as="geometry"/>
                </mxCell>
                <mxCell id="225" value="Azure AD" style="verticalLabelPosition=bottom;html=1;verticalAlign=top;align=center;strokeColor=none;fillColor=#00BEF2;shape=mxgraph.azure.azure_active_directory;labelBackgroundColor=none;sketch=0;fontFamily=Helvetica;fontSize=14;fontColor=#FFFFFF;" parent="-sU8y2Q3AdZbQh8XbGMl-1" vertex="1">
                    <mxGeometry x="3250.5" y="1430" width="64" height="64" as="geometry"/>
                </mxCell>
                <mxCell id="227" value="Admins" style="aspect=fixed;html=1;points=[];align=center;image;fontSize=13;image=img/lib/azure2/management_governance/User_Privacy.svg;rounded=0;dashed=1;labelBackgroundColor=none;sketch=0;fillColor=none;fontFamily=Helvetica;fontColor=#FFFFFF;" parent="-sU8y2Q3AdZbQh8XbGMl-1" vertex="1">
                    <mxGeometry x="3257.56" y="1559.5" width="49.88" height="53" as="geometry"/>
                </mxCell>
                <mxCell id="230" value="Tokens" style="whiteSpace=wrap;html=1;labelPosition=center;verticalLabelPosition=middle;align=center;verticalAlign=top;sketch=0;fillStyle=zigzag;fontSize=16;fontFamily=Helvetica;labelBackgroundColor=none;opacity=20;fontColor=#FFFFFF;" parent="-sU8y2Q3AdZbQh8XbGMl-1" vertex="1">
                    <mxGeometry x="3152.5" y="1747.25" width="265" height="100" as="geometry"/>
                </mxCell>
                <mxCell id="233" value="Databricks&lt;br&gt;Service Principals" style="outlineConnect=0;gradientColor=none;strokeColor=#232F3E;dashed=0;verticalLabelPosition=bottom;verticalAlign=top;align=center;html=1;fontSize=12;fontStyle=0;aspect=fixed;shape=mxgraph.aws4.resourceIcon;resIcon=mxgraph.aws4.saml_token;fillColor=none;fontFamily=Helvetica;labelBackgroundColor=none;fontColor=#FFFFFF;" parent="-sU8y2Q3AdZbQh8XbGMl-1" vertex="1">
                    <mxGeometry x="3188.6000000000004" y="1768.75" width="34" height="34" as="geometry"/>
                </mxCell>
                <mxCell id="235" value="&lt;span style=&quot;font-size: 18px;&quot;&gt;Monitoring Famework&lt;/span&gt;" style="whiteSpace=wrap;html=1;verticalAlign=top;fontSize=18;dashed=1;sketch=0;shadow=0;glass=0;rounded=0;fillStyle=zigzag;opacity=80;fontFamily=Helvetica;fontStyle=0;labelBackgroundColor=none;strokeWidth=2;strokeColor=#4EC4F5;dashPattern=1 1;fontColor=#182633;fillColor=#F5F5F5;" parent="-sU8y2Q3AdZbQh8XbGMl-1" vertex="1">
                    <mxGeometry x="1480" y="1581" width="1590" height="136.75" as="geometry"/>
                </mxCell>
                <mxCell id="236" value="Metrics" style="aspect=fixed;html=1;points=[];align=center;image;fontSize=14;image=img/lib/azure2/management_governance/Monitor.svg;rounded=1;shadow=0;glass=0;labelBackgroundColor=none;sketch=0;fillColor=#F0F0F0;opacity=20;fontFamily=Helvetica;strokeWidth=1;fontColor=#182633;" parent="-sU8y2Q3AdZbQh8XbGMl-1" vertex="1">
                    <mxGeometry x="1748.25" y="1621.38" width="51" height="51" as="geometry"/>
                </mxCell>
                <mxCell id="237" value="Cost Alerts" style="aspect=fixed;html=1;points=[];align=center;image;fontSize=14;image=img/lib/azure2/general/Cost_Alerts.svg;rounded=1;shadow=0;glass=0;labelBackgroundColor=none;sketch=0;fillColor=#F0F0F0;opacity=20;fontFamily=Helvetica;strokeWidth=1;fontColor=#182633;" parent="-sU8y2Q3AdZbQh8XbGMl-1" vertex="1">
                    <mxGeometry x="1992" y="1621.38" width="59.82" height="50" as="geometry"/>
                </mxCell>
                <mxCell id="238" value="Azure DevOps Pipeline Alerts" style="aspect=fixed;html=1;points=[];align=center;image;fontSize=14;image=img/lib/azure2/management_governance/Alerts.svg;shadow=0;labelBackgroundColor=none;sketch=0;strokeColor=#13344c;fillColor=#13344C;opacity=20;fontFamily=Helvetica;strokeWidth=1;fontColor=#182633;" parent="-sU8y2Q3AdZbQh8XbGMl-1" vertex="1">
                    <mxGeometry x="2237" y="1621.38" width="67" height="56.00000000000001" as="geometry"/>
                </mxCell>
                <mxCell id="239" value="Data Job Alerts" style="aspect=fixed;html=1;points=[];align=center;image;fontSize=14;image=img/lib/azure2/management_governance/Alerts.svg;shadow=0;labelBackgroundColor=none;sketch=0;strokeColor=#13344c;fillColor=#13344C;opacity=20;fontFamily=Helvetica;strokeWidth=1;fontColor=#182633;" parent="-sU8y2Q3AdZbQh8XbGMl-1" vertex="1">
                    <mxGeometry x="2486" y="1621.38" width="67" height="56.00000000000001" as="geometry"/>
                </mxCell>
                <mxCell id="240" value="Data Pipeline Alerts" style="aspect=fixed;html=1;points=[];align=center;image;fontSize=14;image=img/lib/azure2/management_governance/Alerts.svg;shadow=0;labelBackgroundColor=none;sketch=0;strokeColor=#13344c;fillColor=#13344C;opacity=20;fontFamily=Helvetica;strokeWidth=1;fontColor=#182633;" parent="-sU8y2Q3AdZbQh8XbGMl-1" vertex="1">
                    <mxGeometry x="2734.75" y="1621.38" width="67" height="56.00000000000001" as="geometry"/>
                </mxCell>
                <mxCell id="241" value="&lt;span style=&quot;font-size: 18px;&quot;&gt;Security Framework&lt;/span&gt;" style="whiteSpace=wrap;html=1;verticalAlign=top;fontSize=18;dashed=1;sketch=0;shadow=0;glass=0;rounded=0;fillStyle=zigzag;opacity=80;fontFamily=Helvetica;fontStyle=0;labelBackgroundColor=none;strokeWidth=2;dashPattern=1 1;strokeColor=#4EC4F5;fontColor=#182633;fillColor=#F5F5F5;" parent="-sU8y2Q3AdZbQh8XbGMl-1" vertex="1">
                    <mxGeometry x="1480" y="1754" width="1590" height="166" as="geometry"/>
                </mxCell>
                <mxCell id="242" value="Firewall&lt;br style=&quot;font-size: 14px;&quot;&gt;Access Control" style="aspect=fixed;html=1;points=[];align=center;image;fontSize=14;image=img/lib/mscae/Azure_Firewall.svg;rounded=0;dashed=1;labelBackgroundColor=none;sketch=0;fillColor=none;fontFamily=Helvetica;fontColor=#182633;" parent="-sU8y2Q3AdZbQh8XbGMl-1" vertex="1">
                    <mxGeometry x="2064" y="1805.0000000000002" width="50" height="50" as="geometry"/>
                </mxCell>
                <mxCell id="243" value="Role Based&lt;br style=&quot;font-size: 14px;&quot;&gt;Identity and Access&lt;br style=&quot;font-size: 14px;&quot;&gt;Managaement" style="aspect=fixed;html=1;points=[];align=center;image;fontSize=14;image=img/lib/azure2/management_governance/User_Privacy.svg;rounded=0;dashed=1;labelBackgroundColor=none;sketch=0;fillColor=none;fontFamily=Helvetica;fontColor=#182633;" parent="-sU8y2Q3AdZbQh8XbGMl-1" vertex="1">
                    <mxGeometry x="2247" y="1805.0000000000002" width="49.88" height="53" as="geometry"/>
                </mxCell>
                <mxCell id="244" value="Logs and Auditing" style="aspect=fixed;html=1;points=[];align=center;image;fontSize=14;image=img/lib/azure2/analytics/Log_Analytics_Workspaces.svg;shadow=0;labelBackgroundColor=none;sketch=0;strokeColor=#000000;fillColor=#F5F5F5;opacity=20;fontFamily=Helvetica;fontColor=#182633;" parent="-sU8y2Q3AdZbQh8XbGMl-1" vertex="1">
                    <mxGeometry x="2422" y="1805.0000000000002" width="64" height="64" as="geometry"/>
                </mxCell>
                <mxCell id="245" value="&lt;span style=&quot;font-size: 18px&quot;&gt;&lt;font&gt;Results&lt;/font&gt;&lt;/span&gt;" style="rounded=0;whiteSpace=wrap;html=1;shadow=0;labelBackgroundColor=none;sketch=0;fontSize=18;verticalAlign=top;fillStyle=zigzag;fontFamily=Helvetica;fontStyle=0;opacity=80;strokeWidth=2;fillColor=#FC5F57;strokeColor=#FC5F57;fontColor=#182633;dashed=1;dashPattern=1 1;" parent="-sU8y2Q3AdZbQh8XbGMl-1" vertex="1">
                    <mxGeometry x="3130" y="740.72" width="330" height="200" as="geometry"/>
                </mxCell>
                <mxCell id="246" value="&lt;font&gt;Results&lt;br&gt;Serving&lt;/font&gt;" style="aspect=fixed;html=1;points=[];align=center;image;fontSize=14;image=img/lib/azure2/databases/SQL_Database.svg;dashed=1;labelBackgroundColor=none;fontFamily=Helvetica;strokeColor=#3399FF;opacity=50;fontColor=#182633;" parent="-sU8y2Q3AdZbQh8XbGMl-1" vertex="1">
                    <mxGeometry x="3271" y="808.72" width="48" height="64" as="geometry"/>
                </mxCell>
                <mxCell id="153" value="&lt;font style=&quot;font-size: 14px;&quot;&gt;Worker&lt;/font&gt;" style="html=1;points=[];align=center;image;fontSize=14;image=img/lib/mscae/Databricks.svg;labelBackgroundColor=none;fontFamily=Helvetica;fontColor=#182633;" parent="-sU8y2Q3AdZbQh8XbGMl-1" vertex="1">
                    <mxGeometry x="2756.5" y="1140" width="50" height="50" as="geometry"/>
                </mxCell>
                <mxCell id="154" value="Worker" style="html=1;points=[];align=center;image;fontSize=14;image=img/lib/mscae/Databricks.svg;labelBackgroundColor=none;fontFamily=Helvetica;fontColor=#182633;" parent="-sU8y2Q3AdZbQh8XbGMl-1" vertex="1">
                    <mxGeometry x="2644" y="1140" width="50" height="50" as="geometry"/>
                </mxCell>
                <mxCell id="253" style="edgeStyle=orthogonalEdgeStyle;rounded=0;orthogonalLoop=1;jettySize=auto;html=1;exitX=0.25;exitY=1;exitDx=0;exitDy=0;entryX=0.665;entryY=0;entryDx=0;entryDy=0;entryPerimeter=0;dashed=1;fontFamily=Helvetica;fontSize=14;startArrow=classic;startFill=1;endArrow=classic;endFill=1;labelBackgroundColor=none;strokeWidth=2;fontColor=#182633;strokeColor=#182633;" parent="-sU8y2Q3AdZbQh8XbGMl-1" source="249" target="115" edge="1">
                    <mxGeometry relative="1" as="geometry"/>
                </mxCell>
                <mxCell id="254" value="Databricks Workspace Acess" style="edgeLabel;html=1;align=center;verticalAlign=middle;resizable=0;points=[];fontSize=14;fontFamily=Helvetica;labelBackgroundColor=none;fontColor=#182633;" parent="253" vertex="1" connectable="0">
                    <mxGeometry x="0.2114" y="1" relative="1" as="geometry">
                        <mxPoint x="100" y="-4" as="offset"/>
                    </mxGeometry>
                </mxCell>
                <mxCell id="255" value="Databricks JDBC/OBDC Access" style="edgeLabel;html=1;align=center;verticalAlign=middle;resizable=0;points=[];fontSize=14;fontFamily=Helvetica;labelBackgroundColor=none;fontColor=#182633;" parent="253" vertex="1" connectable="0">
                    <mxGeometry x="0.5791" y="6" relative="1" as="geometry">
                        <mxPoint x="104" y="-10" as="offset"/>
                    </mxGeometry>
                </mxCell>
                <mxCell id="262" value="&lt;font&gt;&amp;nbsp;SQL&lt;br&gt;JDBC/ODBC&lt;/font&gt;" style="edgeStyle=orthogonalEdgeStyle;rounded=0;orthogonalLoop=1;jettySize=auto;html=1;exitX=0.75;exitY=1;exitDx=0;exitDy=0;entryX=0.344;entryY=0.006;entryDx=0;entryDy=0;entryPerimeter=0;dashed=1;fontFamily=Helvetica;fontSize=14;startArrow=classic;startFill=1;endArrow=classic;endFill=1;labelBackgroundColor=none;strokeWidth=2;fontColor=#182633;strokeColor=#182633;" parent="-sU8y2Q3AdZbQh8XbGMl-1" source="249" target="245" edge="1">
                    <mxGeometry x="0.1508" y="51" relative="1" as="geometry">
                        <mxPoint y="-1" as="offset"/>
                    </mxGeometry>
                </mxCell>
                <mxCell id="249" value="&lt;span style=&quot;font-size: 18px&quot;&gt;Data Usage&lt;/span&gt;" style="rounded=0;whiteSpace=wrap;html=1;shadow=0;labelBackgroundColor=none;sketch=0;fontSize=18;verticalAlign=top;fillStyle=zigzag;fontFamily=Helvetica;fontStyle=0;strokeWidth=2;fillColor=#bb6bd6;opacity=80;strokeColor=#BB6BD6;fontColor=#182633;dashed=1;dashPattern=1 1;" parent="-sU8y2Q3AdZbQh8XbGMl-1" vertex="1">
                    <mxGeometry x="2590" y="430" width="870" height="120" as="geometry"/>
                </mxCell>
                <mxCell id="257" value="Dashboards" style="pointerEvents=1;shadow=0;dashed=0;html=1;strokeColor=none;fillColor=#434445;aspect=fixed;labelPosition=center;verticalLabelPosition=bottom;verticalAlign=top;align=center;outlineConnect=0;shape=mxgraph.vvd.nsx_dashboard;labelBackgroundColor=none;fontFamily=Helvetica;fontSize=14;fontColor=#182633;" parent="-sU8y2Q3AdZbQh8XbGMl-1" vertex="1">
                    <mxGeometry x="3081" y="469.43" width="50" height="46.5" as="geometry"/>
                </mxCell>
                <mxCell id="261" value="Reports" style="shadow=0;dashed=0;html=1;strokeColor=none;fillColor=#4495D1;labelPosition=center;verticalLabelPosition=bottom;verticalAlign=top;align=center;outlineConnect=0;shape=mxgraph.veeam.2d.report;labelBackgroundColor=none;fontFamily=Helvetica;fontSize=14;fontColor=#182633;" parent="-sU8y2Q3AdZbQh8XbGMl-1" vertex="1">
                    <mxGeometry x="3290" y="452.05" width="50" height="65" as="geometry"/>
                </mxCell>
                <mxCell id="M8u80le9je5p9nFcWl_B-263" value="IAM Access Control" style="whiteSpace=wrap;html=1;labelPosition=center;verticalLabelPosition=middle;align=center;verticalAlign=top;sketch=0;fillStyle=zigzag;fontSize=14;fontFamily=Helvetica;labelBackgroundColor=none;fillColor=#4EC4F5;fontColor=#182633;" parent="-sU8y2Q3AdZbQh8XbGMl-1" vertex="1">
                    <mxGeometry x="3202.5" y="1088.5" width="185" height="30" as="geometry"/>
                </mxCell>
                <mxCell id="M8u80le9je5p9nFcWl_B-264" value="Routing" style="whiteSpace=wrap;html=1;labelPosition=center;verticalLabelPosition=middle;align=center;verticalAlign=top;sketch=0;fillStyle=zigzag;fontSize=14;fontFamily=Helvetica;labelBackgroundColor=none;fillColor=#4EC4F5;fontColor=#182633;" parent="-sU8y2Q3AdZbQh8XbGMl-1" vertex="1">
                    <mxGeometry x="3202.5" y="1139" width="185" height="30" as="geometry"/>
                </mxCell>
                <mxCell id="M8u80le9je5p9nFcWl_B-265" value="Network Security Groups" style="whiteSpace=wrap;html=1;labelPosition=center;verticalLabelPosition=middle;align=center;verticalAlign=top;sketch=0;fillStyle=zigzag;fontSize=14;fontFamily=Helvetica;labelBackgroundColor=none;fillColor=#4EC4F5;fontColor=#182633;" parent="-sU8y2Q3AdZbQh8XbGMl-1" vertex="1">
                    <mxGeometry x="3202.5" y="1190" width="185" height="30" as="geometry"/>
                </mxCell>
                <mxCell id="M8u80le9je5p9nFcWl_B-266" value="Transformation&#10;Testing &amp;&#10;Data Quality" style="shape=image;verticalLabelPosition=bottom;verticalAlign=top;imageAspect=0;aspect=fixed;image=data:image/svg+xml,PHN2ZyB4bWxucz0iaHR0cDovL3d3dy53My5vcmcvMjAwMC9zdmciIHZpZXdCb3g9IjExLjk4ODI5MzY0Nzc2NjExMyAxMC45OTc3OTUxMDQ5ODA0NjkgNDk2LjAxMTcxODc1IDE2OC4wMDc2NTk5MTIxMDkzOCIgd2lkdGg9IjQ5Ni4wMTE3MTg3NSIgaGVpZ2h0PSIxNjguMDA3NjU5OTEyMTA5MzgiPjxkZWZzPjxzdHlsZT4uY2xzLTF7ZmlsbDojZmY2OTRiO308L3N0eWxlPjwvZGVmcz48ZyBpZD0iZGJ0LWxvZ28tZnVsbCI+PHBhdGggZD0iTTI3OS4xLDI3LjMzbC0uNDksNDEuMjdjLTIwLjY1LTQuNDgtMzQtMS4zNi0zNC0xLjM2cy0xNS40OCwxLjkxLTI1LjI2LDE4LjM2LTUuMjksNDguMzQtNS4yOSw0OC4zNGE0NC4wNiw0NC4wNiwwLDAsMCw1LjIyLDE1LjUzYzQuMzYsNy41MSwxMC40Myw5LjY1LDEwLjQzLDkuNjVzMS41NywxLjM2LDguMzYsMi44NlMyNTcsMTYyLDI1NywxNjJzNy4yMS0xLjI5LDkuMjktMi43MiwxMS4xNC0xMiwxMS4xNC0xMmgxLjYzbDMuODMsMTUuMzNoMjIuNDNsLjItMTM1LjIxWm0tLjI3LDExMi4wOHMtMTQuNjMsNi0yOC4xOCwxLjYzYy02LTEuOTItOC40MS04LjYtOS40Ni0xNC4yMmE2OC45Miw2OC45MiwwLDAsMSwuMTgtMjUuNDljMS00Ljg0LDMuMzItOS42Myw3LjU5LTEyLjM4YTE2LjY4LDE2LjY4LDAsMCwxLDcuOTItMi40NGMxNi45NC0xLjA4LDIxLjk1LjgyLDIxLjk1LjgyWiIvPjxwYXRoIGQ9Ik0zNTguNTYsMjcuMzNIMzMyVjE2Mi41NGg0LjU2bDcuMzItNXMyMi4xNSw2LjksNDAuMzEsNC42MiwyMS45NS02LjI3LDIxLjk1LTYuMjcsMTQuMTEtNi40MywxNy41My0zMy40Ni0xLjkxLTUwLjEtMTgtNTQuNDdhNTYuNjUsNTYuNjUsMCwwLDAtMjItMS4zM2MtNi41OC44NC0xMi4yNiwxLjk0LTE2LjQ2LDcuNDdMMzYwLDgyLjI1aC0xLjQ3Wk0zOTUuNzUsMTI4LjZzMCw0Ljg5LTYuODEsMTAuNS0zMC4zLDEuNzktMzAuMywxLjc5Vjg5LjU4czQuMTctMi4zOSwxOC4yNS0yLjg3LDE2Ljk1LDYuMjEsMTYuOTUsNi4yMUM0MDAuMTYsMTA0LjYxLDM5NS43NSwxMjguNiwzOTUuNzUsMTI4LjZaIi8+PHBhdGggZD0iTTUwNy40LDEzOC45MXMtMTkuNTIsNC41LTI0LjgxLDEuODUtNC4yMi0xNC4xMy00LjIyLTE0LjEzVjg3LjhoMjYuMTFMNTA4LDY4LjE4SDQ3OC4yOFY0OEw0NTEuNiw1M1Y2OC4yMkg0NDBsLTEuNDQsMTkuNDFINDUxLjZ2NDYuMTJhNDEuODQsNDEuODQsMCwwLDAsMi4xMiwxMy44MiwyMy4wNiwyMy4wNiwwLDAsMCw2LjEsOS42N2M1LjM2LDQuODYsMTMuNjUsNS4zMSwyMC41MSw1LjM0YTkwLDkwLDAsMCwwLDI0LjU0LTMuMjlaIi8+PHBhdGggY2xhc3M9ImNscy0xIiBkPSJNMTcwLjg0LDE0LjE2YTE3LjgsMTcuOCwwLDAsMC02LjI2LTIuNywxOS43NywxOS43NywwLDAsMC03LS4yNywyMS42OSwyMS42OSwwLDAsMC03LDIuMjNsLTEwLjI1LDUuNjQtMTAuMjQsNS42My0xMC4yNCw1LjYzTDEwOS42MywzNkEyOS43MiwyOS43MiwwLDAsMSwxMDIuNTYsMzlhMjcuMjUsMjcuMjUsMCwwLDEtNy4zNiwxLjA4LDI3LjU5LDI3LjU5LDAsMCwxLTcuMzgtLjkxLDI5LjM5LDI5LjM5LDAsMCwxLTcuMTEtMi45MmwtOS45My01LjQtOS45Mi01LjQtOS45My01LjQxTDQxLDE0LjY3QTE4LjE5LDE4LjE5LDAsMCwwLDI4LjU3LDEyLDE5LjkyLDE5LjkyLDAsMCwwLDEyLjI5LDI3LjYxYTE4LDE4LDAsMCwwLDIuMjIsMTIuNDdMMTgsNDYuNDZsNy42NywxNGMyLjc4LDUuMSw1LjU3LDEwLjIxLDcuNjcsMTRsMy40OCw2LjM4YTI5LjI1LDI5LjI1LDAsMCwxLDMsN0EyNy43OSwyNy43OSwwLDAsMSw0MCwxMDIuNzFhMjkuODMsMjkuODMsMCwwLDEtMyw3LjEyTDMxLjUzLDEyMGwtNS40NiwxMC4xNC01LjQ2LDEwLjE1LTUuNDYsMTAuMTRhMjIuNjksMjIuNjksMCwwLDAtMi4wOSw1LjI3LDE4LjY2LDE4LjY2LDAsMCwwLS42LDUuMzIsMTYuNiwxNi42LDAsMCwwLDEsNS4xNkExNy41MiwxNy41MiwwLDAsMCwxNiwxNzEsMTksMTksMCwwLDAsMjEsMTc1LjdhMTkuNjgsMTkuNjgsMCwwLDAsNi4yNiwyLjczLDIwLDIwLDAsMCwwLDcsLjQ1LDIwLjM4LDIwLjM4LDAsMCwwLDctMi4xM2wxMC42Mi01LjgzLDEwLjYyLTUuODIsMTAuNjMtNS44MywxMC42Mi01LjgzYTU3LjM5LDU3LjM5LDAsMCwxLTguODEtNy44LDc4LjQ3LDc4LjQ3LDAsMCwxLTcuMzMtOS4yOGMtMi4yMy0zLjI4LTQuMjctNi43LTYuMTctMTAuMTgtMS42OS0zLjEtMy4yNi02LjI0LTQuNzctOS4zNiwyLjY3LDUsOC40MiwxMC4zMSwxNS45LDE1LjY0YTI2My40MywyNjMuNDMsMCwwLDAsMjguMzUsMTdjMTAuMjksNS40OCwyMC44NywxMC42NiwzMCwxNS4yNHMxNi44Nyw4LjU1LDIxLjQ2LDExLjU4YTE2LjksMTYuOSwwLDAsMCwxMi4zMiwxLjk0QTE5LjMyLDE5LjMyLDAsMCwwLDE3NC42OSwxNzJhMjEuNCwyMS40LDAsMCwwLDUuMS0xMSwxOC44NiwxOC44NiwwLDAsMC0yLjUxLTEyLjQ1TDE3MSwxMzcuMjNsLTEzLjc2LTI1LTEzLjc1LTI1TDEzNy4yNyw3NmE3MS4yMyw3MS4yMywwLDAsMC00LjMzLTYuNSw2Mi4xLDYyLjEsMCwwLDAtNS01Ljg1LDU0LjIzLDU0LjIzLDAsMCwwLTUuNjgtNS4xMyw1MS42Nyw1MS42NywwLDAsMC02LjQ2LTQuMzRjMy41MiwxLjYsNy4wOCwzLjI2LDEwLjU5LDUuMDVhMTE0Ljg5LDExNC44OSwwLDAsMSwxMC4yOCw1Ljg3LDczLjI3LDczLjI3LDAsMCwxLDkuMzksNy4xNCw1NC42NCw1NC42NCwwLDAsMSw4LDguOWw1LjY1LTEwLjM0LDUuNjQtMTAuMzRMMTcxLDUwLjFsNS42NS0xMC4zNGExOC4xOCwxOC4xOCwwLDAsMCwyLjEtNC45NSwxOC42MiwxOC42MiwwLDAsMC0uMzctMTAuNjksMTcuMywxNy4zLDAsMCwwLTIuNjEtNC45QTE3Ljc0LDE3Ljc0LDAsMCwwLDE3MC44NCwxNC4xNlpNMzkuOCwxNTlhNy4zOSw3LjM5LDAsMCwxLTcuNzYsNy45LDcuODMsNy44MywwLDEsMS0uMTQtMTUuNjZBNy4zOSw3LjM5LDAsMCwxLDM5LjgsMTU5Wk0yNC4zMSwzMS4zMWE3LjQsNy40LDAsMCwxLDcuNzctNy45QTcuNCw3LjQsMCwwLDEsNDAsMzEuMThhNy40LDcuNCwwLDAsMS03Ljc2LDcuOUE3LjQxLDcuNDEsMCwwLDEsMjQuMzEsMzEuMzFaTTE2Ny42LDE1OC43NmE3Ljg0LDcuODQsMCwxLDEtNy45LTcuNzZBNy40LDcuNCwwLDAsMSwxNjcuNiwxNTguNzZabS01My02Ni41N2MtMi4zLTMuNzgtNi4xMi01LjI2LTEwLjY4LTUuMjFhMTUuNjQsMTUuNjQsMCwwLDAtMTAuNSwyNi43NUExOC42NSwxOC42NSwwLDAsMSw3Ny4yOCw5Mi42MUM3OC43NCw4Mi43LDg4LjU5LDc1LDk4LjUsNzYuMzksMTA2Ljg4LDc3LjgxLDExMy43Niw4My44MiwxMTQuNTcsOTIuMTlabTUzLjU2LTYxLjU0YTcuODQsNy44NCwwLDAsMS0xNS42Ny4xNCw3Ljg0LDcuODQsMCwwLDEsMTUuNjctLjE0WiIvPjwvZz48L3N2Zz4=;fontSize=14;fontColor=#182633;" parent="-sU8y2Q3AdZbQh8XbGMl-1" vertex="1">
                    <mxGeometry x="2618.45" y="781.5" width="118.1" height="40" as="geometry"/>
                </mxCell>
                <mxCell id="M8u80le9je5p9nFcWl_B-267" value="" style="shape=image;verticalLabelPosition=bottom;verticalAlign=top;imageAspect=0;aspect=fixed;image=data:image/svg+xml,PHN2ZyB4bWxucz0iaHR0cDovL3d3dy53My5vcmcvMjAwMC9zdmciIHZpZXdCb3g9IjExLjk4ODI5MzY0Nzc2NjExMyAxMC45OTc3OTUxMDQ5ODA0NjkgNDk2LjAxMTcxODc1IDE2OC4wMDc2NTk5MTIxMDkzOCIgd2lkdGg9IjQ5Ni4wMTE3MTg3NSIgaGVpZ2h0PSIxNjguMDA3NjU5OTEyMTA5MzgiPjxkZWZzPjxzdHlsZT4uY2xzLTF7ZmlsbDojZmY2OTRiO308L3N0eWxlPjwvZGVmcz48ZyBpZD0iZGJ0LWxvZ28tZnVsbCI+PHBhdGggZD0iTTI3OS4xLDI3LjMzbC0uNDksNDEuMjdjLTIwLjY1LTQuNDgtMzQtMS4zNi0zNC0xLjM2cy0xNS40OCwxLjkxLTI1LjI2LDE4LjM2LTUuMjksNDguMzQtNS4yOSw0OC4zNGE0NC4wNiw0NC4wNiwwLDAsMCw1LjIyLDE1LjUzYzQuMzYsNy41MSwxMC40Myw5LjY1LDEwLjQzLDkuNjVzMS41NywxLjM2LDguMzYsMi44NlMyNTcsMTYyLDI1NywxNjJzNy4yMS0xLjI5LDkuMjktMi43MiwxMS4xNC0xMiwxMS4xNC0xMmgxLjYzbDMuODMsMTUuMzNoMjIuNDNsLjItMTM1LjIxWm0tLjI3LDExMi4wOHMtMTQuNjMsNi0yOC4xOCwxLjYzYy02LTEuOTItOC40MS04LjYtOS40Ni0xNC4yMmE2OC45Miw2OC45MiwwLDAsMSwuMTgtMjUuNDljMS00Ljg0LDMuMzItOS42Myw3LjU5LTEyLjM4YTE2LjY4LDE2LjY4LDAsMCwxLDcuOTItMi40NGMxNi45NC0xLjA4LDIxLjk1LjgyLDIxLjk1LjgyWiIvPjxwYXRoIGQ9Ik0zNTguNTYsMjcuMzNIMzMyVjE2Mi41NGg0LjU2bDcuMzItNXMyMi4xNSw2LjksNDAuMzEsNC42MiwyMS45NS02LjI3LDIxLjk1LTYuMjcsMTQuMTEtNi40MywxNy41My0zMy40Ni0xLjkxLTUwLjEtMTgtNTQuNDdhNTYuNjUsNTYuNjUsMCwwLDAtMjItMS4zM2MtNi41OC44NC0xMi4yNiwxLjk0LTE2LjQ2LDcuNDdMMzYwLDgyLjI1aC0xLjQ3Wk0zOTUuNzUsMTI4LjZzMCw0Ljg5LTYuODEsMTAuNS0zMC4zLDEuNzktMzAuMywxLjc5Vjg5LjU4czQuMTctMi4zOSwxOC4yNS0yLjg3LDE2Ljk1LDYuMjEsMTYuOTUsNi4yMUM0MDAuMTYsMTA0LjYxLDM5NS43NSwxMjguNiwzOTUuNzUsMTI4LjZaIi8+PHBhdGggZD0iTTUwNy40LDEzOC45MXMtMTkuNTIsNC41LTI0LjgxLDEuODUtNC4yMi0xNC4xMy00LjIyLTE0LjEzVjg3LjhoMjYuMTFMNTA4LDY4LjE4SDQ3OC4yOFY0OEw0NTEuNiw1M1Y2OC4yMkg0NDBsLTEuNDQsMTkuNDFINDUxLjZ2NDYuMTJhNDEuODQsNDEuODQsMCwwLDAsMi4xMiwxMy44MiwyMy4wNiwyMy4wNiwwLDAsMCw2LjEsOS42N2M1LjM2LDQuODYsMTMuNjUsNS4zMSwyMC41MSw1LjM0YTkwLDkwLDAsMCwwLDI0LjU0LTMuMjlaIi8+PHBhdGggY2xhc3M9ImNscy0xIiBkPSJNMTcwLjg0LDE0LjE2YTE3LjgsMTcuOCwwLDAsMC02LjI2LTIuNywxOS43NywxOS43NywwLDAsMC03LS4yNywyMS42OSwyMS42OSwwLDAsMC03LDIuMjNsLTEwLjI1LDUuNjQtMTAuMjQsNS42My0xMC4yNCw1LjYzTDEwOS42MywzNkEyOS43MiwyOS43MiwwLDAsMSwxMDIuNTYsMzlhMjcuMjUsMjcuMjUsMCwwLDEtNy4zNiwxLjA4LDI3LjU5LDI3LjU5LDAsMCwxLTcuMzgtLjkxLDI5LjM5LDI5LjM5LDAsMCwxLTcuMTEtMi45MmwtOS45My01LjQtOS45Mi01LjQtOS45My01LjQxTDQxLDE0LjY3QTE4LjE5LDE4LjE5LDAsMCwwLDI4LjU3LDEyLDE5LjkyLDE5LjkyLDAsMCwwLDEyLjI5LDI3LjYxYTE4LDE4LDAsMCwwLDIuMjIsMTIuNDdMMTgsNDYuNDZsNy42NywxNGMyLjc4LDUuMSw1LjU3LDEwLjIxLDcuNjcsMTRsMy40OCw2LjM4YTI5LjI1LDI5LjI1LDAsMCwxLDMsN0EyNy43OSwyNy43OSwwLDAsMSw0MCwxMDIuNzFhMjkuODMsMjkuODMsMCwwLDEtMyw3LjEyTDMxLjUzLDEyMGwtNS40NiwxMC4xNC01LjQ2LDEwLjE1LTUuNDYsMTAuMTRhMjIuNjksMjIuNjksMCwwLDAtMi4wOSw1LjI3LDE4LjY2LDE4LjY2LDAsMCwwLS42LDUuMzIsMTYuNiwxNi42LDAsMCwwLDEsNS4xNkExNy41MiwxNy41MiwwLDAsMCwxNiwxNzEsMTksMTksMCwwLDAsMjEsMTc1LjdhMTkuNjgsMTkuNjgsMCwwLDAsNi4yNiwyLjczLDIwLDIwLDAsMCwwLDcsLjQ1LDIwLjM4LDIwLjM4LDAsMCwwLDctMi4xM2wxMC42Mi01LjgzLDEwLjYyLTUuODIsMTAuNjMtNS44MywxMC42Mi01LjgzYTU3LjM5LDU3LjM5LDAsMCwxLTguODEtNy44LDc4LjQ3LDc4LjQ3LDAsMCwxLTcuMzMtOS4yOGMtMi4yMy0zLjI4LTQuMjctNi43LTYuMTctMTAuMTgtMS42OS0zLjEtMy4yNi02LjI0LTQuNzctOS4zNiwyLjY3LDUsOC40MiwxMC4zMSwxNS45LDE1LjY0YTI2My40MywyNjMuNDMsMCwwLDAsMjguMzUsMTdjMTAuMjksNS40OCwyMC44NywxMC42NiwzMCwxNS4yNHMxNi44Nyw4LjU1LDIxLjQ2LDExLjU4YTE2LjksMTYuOSwwLDAsMCwxMi4zMiwxLjk0QTE5LjMyLDE5LjMyLDAsMCwwLDE3NC42OSwxNzJhMjEuNCwyMS40LDAsMCwwLDUuMS0xMSwxOC44NiwxOC44NiwwLDAsMC0yLjUxLTEyLjQ1TDE3MSwxMzcuMjNsLTEzLjc2LTI1LTEzLjc1LTI1TDEzNy4yNyw3NmE3MS4yMyw3MS4yMywwLDAsMC00LjMzLTYuNSw2Mi4xLDYyLjEsMCwwLDAtNS01Ljg1LDU0LjIzLDU0LjIzLDAsMCwwLTUuNjgtNS4xMyw1MS42Nyw1MS42NywwLDAsMC02LjQ2LTQuMzRjMy41MiwxLjYsNy4wOCwzLjI2LDEwLjU5LDUuMDVhMTE0Ljg5LDExNC44OSwwLDAsMSwxMC4yOCw1Ljg3LDczLjI3LDczLjI3LDAsMCwxLDkuMzksNy4xNCw1NC42NCw1NC42NCwwLDAsMSw4LDguOWw1LjY1LTEwLjM0LDUuNjQtMTAuMzRMMTcxLDUwLjFsNS42NS0xMC4zNGExOC4xOCwxOC4xOCwwLDAsMCwyLjEtNC45NSwxOC42MiwxOC42MiwwLDAsMC0uMzctMTAuNjksMTcuMywxNy4zLDAsMCwwLTIuNjEtNC45QTE3Ljc0LDE3Ljc0LDAsMCwwLDE3MC44NCwxNC4xNlpNMzkuOCwxNTlhNy4zOSw3LjM5LDAsMCwxLTcuNzYsNy45LDcuODMsNy44MywwLDEsMS0uMTQtMTUuNjZBNy4zOSw3LjM5LDAsMCwxLDM5LjgsMTU5Wk0yNC4zMSwzMS4zMWE3LjQsNy40LDAsMCwxLDcuNzctNy45QTcuNCw3LjQsMCwwLDEsNDAsMzEuMThhNy40LDcuNCwwLDAsMS03Ljc2LDcuOUE3LjQxLDcuNDEsMCwwLDEsMjQuMzEsMzEuMzFaTTE2Ny42LDE1OC43NmE3Ljg0LDcuODQsMCwxLDEtNy45LTcuNzZBNy40LDcuNCwwLDAsMSwxNjcuNiwxNTguNzZabS01My02Ni41N2MtMi4zLTMuNzgtNi4xMi01LjI2LTEwLjY4LTUuMjFhMTUuNjQsMTUuNjQsMCwwLDAtMTAuNSwyNi43NUExOC42NSwxOC42NSwwLDAsMSw3Ny4yOCw5Mi42MUM3OC43NCw4Mi43LDg4LjU5LDc1LDk4LjUsNzYuMzksMTA2Ljg4LDc3LjgxLDExMy43Niw4My44MiwxMTQuNTcsOTIuMTlabTUzLjU2LTYxLjU0YTcuODQsNy44NCwwLDAsMS0xNS42Ny4xNCw3Ljg0LDcuODQsMCwwLDEsMTUuNjctLjE0WiIvPjwvZz48L3N2Zz4=;fontSize=14;fontColor=#182633;" parent="-sU8y2Q3AdZbQh8XbGMl-1" vertex="1">
                    <mxGeometry x="1712.6200000000001" y="1364" width="66.04" height="22.37" as="geometry"/>
                </mxCell>
                <mxCell id="M8u80le9je5p9nFcWl_B-268" value="" style="group;fontSize=14;labelBackgroundColor=none;fontColor=#182633;" parent="-sU8y2Q3AdZbQh8XbGMl-1" vertex="1" connectable="0">
                    <mxGeometry x="1724.3700000000001" y="1166" width="42.53" height="37" as="geometry"/>
                </mxCell>
                <mxCell id="M8u80le9je5p9nFcWl_B-269" value="" style="html=1;points=[];align=center;image;fontSize=12;image=img/lib/mscae/Databricks.svg;labelBackgroundColor=none;fontFamily=Helvetica;fontColor=#182633;" parent="M8u80le9je5p9nFcWl_B-268" vertex="1">
                    <mxGeometry x="9.923666666666668" y="-4.008333333333333" width="28.353333333333335" height="30.833333333333332" as="geometry"/>
                </mxCell>
                <mxCell id="M8u80le9je5p9nFcWl_B-270" value="" style="html=1;points=[];align=center;image;fontSize=14;image=img/lib/azure2/databases/Data_Factory.svg;fontFamily=Helvetica;labelBackgroundColor=none;fontColor=#182633;" parent="-sU8y2Q3AdZbQh8XbGMl-1" vertex="1">
                    <mxGeometry x="1732.19" y="960" width="26.9" height="26.5" as="geometry"/>
                </mxCell>
                <mxCell id="M8u80le9je5p9nFcWl_B-271" value="BI Clients" style="shape=image;verticalLabelPosition=bottom;verticalAlign=top;imageAspect=0;aspect=fixed;image=data:image/png,iVBORw0KGgoAAAANSUhEUgAAAgAAAAIACAYAAAD0eNT6AAAABGdBTUEAALGPC/xhBQAAACBjSFJNAAB6JgAAgIQAAPoAAACA6AAAdTAAAOpgAAA6mAAAF3CculE8AAAABmJLR0QA/wD/AP+gvaeTAAAAB3RJTUUH4goPChAGK70qbAAAOZ1JREFUeNrt3XuYXXV59//PvfaemWSSEAKE4GSy19oHEnAUQUQEVCIHBZoEELFSq/1Rn2pbq9KTh+unjz7aWm1/tmK9bG2t9aw1yiETDuEkiPiANoDoAAn7sPbOEA3nkHNm9rp/f2SgAUWYyRz23uv9uq655LqEvdb3vtfe67NO3yUBAAAAAIDOZ5TgN8rk8/lSpqmXuikvJUvcLFKi+WaaJ2n+s/79JyQ9ue9/fZPchk0Wuwf3zjpo1sahoaG9lBQAQABoMQMLB+bu6t1+qpm9Vq7XSDpO0qxJ+vgRl4bMdIukm7tGRm69/8EHH6XqAAACwAzo7+8/pCfoepPMz5V02iTu8J9PIukXkt/i0rWJ2U1xHO9mUwQAEACmcLz5XP6MwPwPJZ03jTv95+TSDpOuc9OgZTJXVSqVh9gsAQAEgElw/PHHd219+LHz3JL3S/aKFl7VRLK7zHytJ8lgpdFYzyYKACAAjF9QCMOLTPY3kqI2XP+KuQbdfHBJvf7Dm6VRNlkAAAHgtzgyn39tkvhnte+Gvk7whKRrZFrTlK6N4/gJNl8AAAFgTBRFB2ek/yPXn0kKOrRvTclud/fBJNCVcRzfz6YMAEhtAChF0Rvc9RVJR6Ssj0PmGpT5mnK9fof2PWkAAEBnB4DlUnY4ij7sro908FH/C/Wo5FebB4Pqzqwrl8tPspkDADouABQKhaWWJN+Q6wTa+Wt2S7pJpjWZ0dG1G4eHH6QkAIC2DwClMHxHIrvUpDm08nm5ZHe6+5rAfLBcr99FSQCAANBWlkvZTWH4T5L9GS2csIckX2cerFZ35rpyubyHkgAAAaB1j/pLpYU+0rxc8lNo36SdHNhuCta5+WBmb/dVGzdvfISaAAABoGUUCoWcNZPrJC2jdVOG2QgBgADQOvL5/LKg6dfLtIS2TefJAT0gszVmvrY/jn90M7MRAgABYLoUi8UlGm3eKimkZTPqcZluUGJrm4GvYTZCACAATJkwDF+Uld0qqUi7WspeyX8oD9Y0Ax+M4zimJABAAJgU/f39s2cF2Zvd9Epa1fKqMq31JFhdbVR/LGYjBAACwETXrRhG35L0FtrUbvwRSdeYB4OZ2d3XbtiwYRs1AQACwAtSiqIPueuTtKjt7XLTDZbY4Kgla+v1+i8pCQAQAH6jwpLCCRYkt0nqokUd514zDSZJsLbaqN4mySkJABAAtGzZsnkju/f8zKQ87el4dckHLQgGe3p7bx4aGtpLSQAgpQGgGIafk+w9LVirJyTdK9fDbvaImT+qRPMl9UhaINNRkkqSMmxWE/KkTOssscFsc+/V9z/44KOUBABSEgBKUfQqd92m1nil74NyDbr59V3SXRvq9drzrn+p1NNsNl8WJFol+fmSXswmNiFNd91mZoOesTXVanUjJQGAzg0AVgzDn0j2ipk8CnXZ15XYV6qbqut1gNen8/n8siDRKndfYaZTODswYRskXxMEwdoHarXbJDUpCQB0SAAohOHvmeybM7T4ups+3dXT842pemTtqMWLDx3NdJ/tga+U6yxJB7H5Tcijkl9tHqzJzO5exyOGANDGAWBgYKB79/YdGyRF07tkf8TMPqls9gvT+TrcgYGB7l3bdr3WrLnKZSu44XHC9rrr5sB8TTMI1tZqtTolAYA2CgClMHyHy740zYu9p2t05LRWuNms0F94aZBNVrhrlaRXqjXugWg7Lt1t8rWeZNZUN1X/WzxiCAAtHQAyxTC6V9LSadxVlEel17bipDRL+5Ye1syOnKPAV8j1BnGpYKIelvxa82CwZ1fvNUMPD22nJADQQgGgGIbnS3bZNC7yV54JTqxWq41Wb04URbMy7q+T2yqZr5Csn012QnbKdb2ZD45dKthCSQAQAGY6AOSia2V6wzQtbiRJ7PTaptqt7disUi43kChYYWYrJT9ZbfI65xZ0r5lWe5IMVhqNO8WlAgAEgOm1LAzzo7Kypumat8n+qFyvfakTGre0v39xM5tdIbeVkp8maTab8/i5VDPToCfB4IKFC25Zv379CFUBQACY6qP/MP8RyT8+TQP9Vrkev7UTm9jf3z+7O+g+xYJkpVwXSFrMpj2hMLAjkP/APRhMMrqSSwUACABTFQCi6B65XjoNi9q8pzn60uHh4cfS0NRSLjegILjQ3VZI/nJxqWAimpLd7u6DGfM1D9Tr91ESAASASVAoFJZaM9kwPUd2/jvVev3qNDY4n8+HQaKV7r7STMsldbPZT8h9Mg0qSdZUGo3bxWyEAAgAEwwAUXSJuf5pGhZ1daUe/w6tlvr6+np7sz2n+75HDFdJOoKqTMijMt2kxNZad+aKcrn8JCUBQAB4gUphOOiyFVO8mKaSzLGVTZVf0OpfExRzueMsCFaOXSo4npJMhI9KwR3uvtq6MpdVKpVN1AQAAeA5LJeym8LoMUnzpva3WV+pNOKLafPzK/YXS5ZtrnTXSslfI1mWqkzInfueKuARQwAEgF+Tz+dfFiR+91QvJwns2Fqt9jPaPD7HLFo0Z2dP72luyYXad5ZmAVWZkIckX8dshAAIAGNKYf5/ufzfp3hoN1bqtTNo8QHLFHKFk4Lg6XcVHE1JJmSXyW90DwazPrp2w6ZNmykJgBQGgOgLLv3JFI/sokocf4cWT64jw/DoxG2lzFdKdpKkDFUZt0TS7W4aDJJksNxoDFESAKkIAMUwuknS66ZwESNN0+FxHD9Bi6fOUYsXHzqa6T7NLVkp2SpJ86nKhMQyXWeJre2Z17tuaGhoLyUB0KEBINw0pS+2ca2rNOKzaO/0WS5lG7nCq8YuFZyvaX27Y+fYbzbC1c3A1xBiAXRMANj3hjvt0JTO/+9/VanXP0N7Z86+Gz2TFea2yk2v0DS976HDjEi61U2D2SRZs7HRqFISAG0bAPbNTOfxFB9HnV6p12+iva1had/Sw5rZkXO0bwKiszTVj392rqpMaz0JBnON6s03S6OUBEDbBIDCksIJFiQ/mcplZEa6F27cvPER2tt6oiiaFSTBq/e9uMjfOKWXgjrbo5JfbR4MqjuzjtkIAbR8ACiG4dmSTeW8/A9V6vEiWtse219hSeH4IJOMTUCk4yjJhOyWdJNMazKjo2s3Dg8/SEkAtN4ZgDC8wGTfm8JF3Fepxy+mte2nWCwerpHkLAW+wl3nmDSHqkzIvWYaTJJgbbVRvU3MRgigRQLA75nsm1O4iP9bqccn09r21t/fP3tW0HXG2IuLVkjqoyoT8tRshKvVnbmuXC7voSQAZiYARNHF5vrylC2ARwA7UVAKwxMTt5W2bwKil1CSCX05tpuCdW4+mNnbfRX3yQAEgGlVCsN3uOxLUzikqyr12gpa27miKIoyib3eLFnpstdL6qYq45ZIdpeZrx17cdF6SgIQAAgAaBtPv7ho36WCVZKOoCoTODcg1cx0vSW2dv7CQ65dv379CFUBCAAEALSLTDGXO9aCYKW7rZD8eEoyIY/LdIMSW8tshAABgACAtrM0lyuMKlhp5iskO1VSF1UZt6Zkt7v7oGfsilqttoGSAAQAAgDaRn9//yGzgq7Tx15ctFLSwVRlQp6ajXB1tVH9sfa92RAAAYAAgLaQKeQKJwVBskKuc106ipJMhD8i6RrzYDAzu/vaDRs2bKMmAAGAAIC28cxLBVouWZaqjNtuyX/kbmuzyej3mI0QIAAQANBWjlq8+NDRTPdpY5cKzpV0EFWZEGYjBAgABAC0p2e8uCjR+TItoSoT0pDpWktsLbMRAgQAAgDaTimXG0gUrDCzlZKfPBPfnw6w0+Q3uQeDY48Y/oqSAAQAAgDaJwyUSgt9b/NsBb5C7mdLNpeqjFtTsrvNfK2S5LvlRuNeSgIQAAgAaBv9/f2zu4PuUyxIVsp1gaTFVGVCnnrEcHDBwgW3MBshQAAgAKC9zg5wqWAyfpgec9ONSmytZ+3KarW6laoABAACANpGoVDI2aifNfbiojMl9VCVcXt6NkJlg8ur1epGSgIQAAgAaBt9fX29vdme08deXLRS0ouoyoTs/4ghsxECBAACANpKUMzljuPFRQfsYcmvNQ8Ge3b1XjP08NB2SgIQAIC2sSwM86MenDl2qeD1krqpyrjtkvw2ZiMECABAWzpm0aI5O3t6Txu7VHCepMOpyoTca6bVniSDlUbjTjEbIUAAANrI0y8uctcqSUdTkgmpy7TOElvbM6933dDQ0F5KAgIAAQBoG898cZGdKqmLqoyPSzsC+Q/cg8EkoytrtdoWqgICAAEAaBv9/f2HzAq6Th97cdEqSfOpyrg9/YhhxnzNA/X6fZQEBAACANBO9r9UcJ6kZZRkQpiNEAQAAgDQvv7nUoFdKPlJkgKqMm6PynSTEltr3ZkryuXyk5QEBAACANA+YaBv6WHN7Mg5+15cpLMkzaMq4+WjUnCHu6+2rsxllUplEzUBAYAAALSNKIpmBUnw6n0vLvI3StZPVSZk/9kIbxOPGIIAQAAA2gkvLpoUzEYIAgABAGhfxWLxcI0kZ+27VOBnSzaXqozbLpPf6B4MZn107YZNmzZTEhAACABA2+jv75/dHXSfsu9Sgd4kqY+qjFsi2V1mvnZsNsL1lAQEAAIA0E6e/eKil4tLBRMRy3QdsxGCAEAAANpSPp8Pg6beMPbiojMl9VCV8dlvNsLVzcDXxHH8BFUBAYAAALSNvr6+3t5sz+ljLy5aJekIqjJuT89GmAS6Mo7j+ykJCAAEAKCdZIq53LH7XSo4npJMyNOzEeYa1ZtvlkYpCQgABACgbSzN5QpNZc4Yu1TwekndVGXcmI0QBAACANC+crncgm5lzhh7cdFKSQdTlXHbLfmP3G1t0Mx+v/xgeZiSgABAAADaydMvLpLrXJeOoiQTwmyEIAAQAID29T8vLvIVkpZLlqUq4/aQ5OvMg9XqzlxXLpf3UBIQAAC0jaMWLz50NNN92tilgnMlHURVxm2nyW9yDwZHLRms1+u/pCQgAABoG8ulbCNXeJUFyYVynScpR1XGjdkIQQAA0N6e9eKikyQFVGV8XKqZ6XpLbO38hYdcu379+hGqQgAgAABonzBQKi30vc2z9724SGdJmkdVxu1xmW5QYmuZjZAAQAAA0Hae9eKiCyQtpirj9vRshJ6xK2q12gZKQgAgAABor7MDz7xUcLJ4cdFEPDUb4epqo/pjSQklIQAQAAC0jWKxeLhGkrPMkgt5cdFE+SOSrjEPBjOzu6/dsGHDNmpCACAAAGgbz3px0UpJL6Iq4/b0bITZZPR7G4eHH6QkBAACAIB2EhRzueN4cdEBYzZCAgABAED7iqIoyiT2el5cdEAaMl1ria1lNkICAAEAQNs5ZtGiOTt7ek8bu1RwrqRFVGXcnp6NcOwRw19REgIAAQBAO3n6xUW+776BF1OScWtKdreZr1WSfLfcaNxLSQgABAAAbeWZLy6yUyV1UZVxe+oRw8EFCxfcwmyEBAACAIC20t/ff8isoOv0sRcXrZI0n6qMewf0mJtuVGJrPWtXVqvVrVSFAEAAANBO9r9UcJ6kZZRk3J6ejVDZ4PJqtbqRkhAACAAA2sozLxVouWRZqjJu+z9iyGyEBAACAIA2CwN9Sw9rZkfOGXtx0RskHURVxu1hya81DwZ7dvVeM/Tw0HZKQgAgAABoG1EUzQqS4NUWJCuV6HyZllCVcdsl+W3MRkgAIAAAaFu8uGhS3Gum1Z4kg5VG404xGyEBgNYCaKswUCot9L3Ns/ddKvCzJZtLVcatLtM6S2xtz7zedUNDQ3spCQEAANpGf3//7O6g+xQLkpVyXSBpMVUZH5d2BPIfuAeDSUZX1mq1LVSFAAAA7XV2IJcbUBBcOPbiopeLSwXj9fQjhhnzNQ/U6/dREgIAALSVfD4fBk29YezFRWdK6qEq48ZshAQAAGhffX19vb3ZntPHXly0StIRVGXcHpXpJiW21rozV5TL5ScJAAQAAGgnQTGXO86CYOXYpYLjKcl4+agU3OHuq60rc1mlUtlEACAAAEBbWRaG+VEPzhy7VPB6Sd1UZdz2n43wNnXYI4YEAADocLlcbkE2CM6yfZcJzpJ0MFUZtwflWuvmaxKzm+I43k0AIAAAQDvZ/8VFqyQdTUnGbZfJb3QPVs/Zs/P792zZsoMAQAAAgLZSyuVenChYOTYb4askZajKuDwp+XeVZC+tbKr8op1WPKB3AJBe5Ubj3moj/nSlXnt1ZqT7CJn+H5N9X9I2qvOCHCTZ/1LQvKcURdcVwvActck8DQQAAIAkaePmjY9U4vir5XrtTUvq8SHuwWvM9GlJG6nO8zJ3nWmyq4pRdEcpipa3/ApP9wK5BAAA7Sefz78sSLTS3Fe66RUcQL6gPeyapvSBOI7v5wwAAKAt1Wq1n1Xqtb8pN+ITMyPdi+T2BzKtFpcKnptrVcZ1TymKPjUwMNByj2ESAAAA47Jx88ZHKo3a1ypx/Oam6XD34EyZPif5MNX5NV3u+sDu7Tt+WgrD4wgAAICOEMfx7mqjekMljt9XqddzngQnmOnjku6iOs9wjMv+bzGXfycBAADQaby6qfrf5Tj+aKUev1zZzNOXClzaQXnUI/MvFsPwa/39/bMJAACAjlSpVB566lLB3N27Frn8ApP+U9JD6a6Mva0nk/lhGIYvmsm1yLKJAgCm2thseZeN/T37xUUvV5s8Oz+JIeAVWenHxf7imZXhSpkzAACANEgqjcb6chx/rFKvvaJpKsjtXSZfK2lviuoQKdO8NZ/Pv4wAAABInTiO40qj9m/len2lZ4LDze13TfZNkx5LwfCPyCR+00yEAC4BAABaRrVa3Srpu2N/mWIud+y+SwW6UNKLO3HMLh0SJH59oVB4dbVanbZZFzkDAABoVc3/uVQQD2Q8KbrrEslvkDTSYWNdaM3kmum8MZAAAABoCxsbjWq1EV9aqdfP3NMcPcLc3ibTdyVt7ZAhFrKyq/r6+nqnY2FcAgAAtJ3h4eHHJH1j7C9TyBVOCoJkhVznunRUGw/tuNld3V+S9HucAQAA4LdrVhvVH5Xj+IPlenz0My8V+GgbjueiYi7/HgIAAADjsP+lAmWzi930h5Iub6vZCM0/U4qiVxEAAACYgEql8lA1jv+zUo/fmJgOe/rFRa5NLb7qXe766lROGcw9AACAVIjjeLekG8b+3lfK5QYSBSvMbKXkJ6v1ZiNc2p3p+htJf8kZAAAAJkm50RiqNuJPV+q1V1tX9ukXF0m+vVXW0eSX5JfkX8MZAAAApiIMlMsPS/qapK/19fX19mZ6zlDg50o6z6VDZnDVgiDwz0t6uaQmZwAAAJgimzdv3lneVFtTrsfvmH/YoUdI/kZJt8zgKh1TzOX/cNKTBa0GAOA3W79+/UilXr+8Uo+Xm+kkmW6dkRUx/5tSqXQQAQAAgGlWjuPbK3F8qpv+dAbuEzjcR0b+igAAAMDM8Goc/4ua2eMk/8U0nwZ4z2SeBSAAAAAwTpXhSnnWzrknSXbVNC72YB9pvpMAAADADBp6eGj7wYcdcr5c/zV9S/VLBgYGugkAAADMoPXr148cvPDQt0m6epoWuXjPtp2/SwAAAKAFQsCc3bvebNLPpuUcgPnFBAAAAFrAPVu27PBm5k2Stk7D4pYvC8M8AQAAgBZQGa6UZbpkGhZlI25vJwAAANAqISCOv2qm66c8AZguIgAAANA63NzfJ/noFC9nWbG/WCIAAADQIh6o1++T2zemfEGZ5CwCAAAALSTJ2KckJVO7FD+bAAAAQAup1Wob5FN+L8Dy5VKWAAAAQAtx869N8SJ66/n8iwkAAAC0kN0jI1e4tGMql5FJkhMIAAAAtJDNmzfvNOmHU7kMdyMAAADQatx03ZQuwPQyAgAAAC3GkuSnU7yIiAAAAECLmbVr3s80tY8DLoqiaBYBAACAFjL08NB2SVumcBEWBEGOAAAAQItxqTGlCxgdXUIAAACgxZj02FR+fhAEcwkAAAC0XACwnVP5+Yn7HAIAAAAtx/dMacDwgAAAAEDq4oW8lwAAAEDKBOYZAgAAACAAAAAAAgAAACAAAABAAAAAAAQAAABAAAAAAB0lSwkAdLLjjz++a+tDD+Xc7GCZzbckmNs07Qos2ZEEwQ53r8dx/ASVAgEAANpXUArDY13B6ZKfLOnFTzzyaF5Bpuupf8EDHzv1aQoSlyQVw2iLpPtlukPuN8/aOffWsde4AgQAAGhVR0bRiUmii2V+gcsOk3y8H7FI0iK5TpXs/bt7d4yUwnCdm31jz+jomuHh4V1UGQQAAGgBy6Xspih6q1x/nbgGZPuO6idJl8tWyLWiJ5PdWshFX/CMXVqr1bZQeXQKbgIE0G6smMu/fVMY3S/XVyQNTPHy5pvpQ0HitWIUfTaXyy2gBSAAAMA0OjIMjy5G0S0y/6qk4jQvfrZc7+uyYEMpDN+hSTzdABAAAOC5jvrD/F8nsrvles0Mr8tCl32pFEXroig6gtaAAAAAU6BQKMwvhtFlkv+9pO5WWS93nZlx/ayUz7+eLoEAAACTqFgsLgmaye2SzmvRVTzck+SqYi7/R3QLBAAAmIwj//7CkRpt3urSUa29ppaV+b8Vw/DjdA0EAAA4AEtzuYJlklskhe2z1vaRUhR9jO6BAAAAE9n59y09rGnBNZJe1G7r7q6PFqLoEroIAgAAjMPAwEB3s2vvlZKWtusYzPWZQhieQzdBAACAF2j39p2flHRyu/+umuwbS3O5Ah0FAQAAnkcpit4g+V90yHAWNIPgO5IydBYEAAB4Dn19fb3u+qI6aXY91wmFKHoP3QUBAACeQ2+2+yNqqzv+Xxhz/0ShUMjRYRAAAOBZSkuWFN305505OptrSfIJugwCAAA8iwfBByX1dO4A9dZ8Pr+MToMAAABjlvb3L5bsbR0+zEzQ9A/RbRAAAGDMaJB9d0cf/T/F9Lu5XG4BHQcBAACkwKTfT8lYZ3WbXUTLQQAAkHrFMDxVpiWpGbDbH9B1EAAApJ4reFOqxms6oVgsHk7nQQAAkPIfHz8tZUM2NZun0XkQAACkVhiGL3IpfY/GuZ9O90EAAJBaWbMT1UnT/r5wx9J9EAAApJZLR6V06EelNPiAAAAAUuBams6R29zS4tJitgAQAACk9QxAmNaxN7ubfWwBIAAASGsEOCitI7emHUT/QQAAkNbd4LzUjtya8+g/CAAA0mp2agOAB3NoPwgAAJDCDEAJQAAAAAAzIksJgOlVLBaX+IgvM/OjzLzfE81387lm1iNplxLtMulxmW9SEJSDZrO8sdGoSXKqB4AAALSJpf39i5NM19kuP13SaRptHm5jJ4HdJZlksv/ZvT/9jyYlrqYFKobRo3L9yALdkgTBVdVqdSOVBUAAAFpMqVTq0d7muW5+cVM6U/LMAX7koTKd665zrZn8YzEM/9ukb2dHR796/4MPPkrFAYwX9wAAk2hgYKC7mMu/00dGym7+X5LOkpSZ/CXZK1z2mb3Zrnoxii4tFAo5qg+AAADMgEIYvnX39h1VmX9Rsv7pWKZJc+R6rzWTB0pR9KmBhQNz6QQAAgAwDZbmcoVCLlpnsm9Imql53rvd9YHdvTvuL4bh+XQFAAEAmEKlKDq3acGdZnp9i6zSYskuK4bh1/r6+nrpEAACADCJlkvZQhj9o7uukDS/9dbQ3ja7q/tHy5Ys4cUzAAgAwGQYGBjoboTht0368xZf1eNGg8yPoyg6iq4BIAAAB6Cvr69317YdgyZ7U5uscphxv7W4pPgSugeAAABMTGZ2tvtbLXS9/wWywxQ010VRFNFCAAQAYJyKYfgvMp3bpqvfl3VdUygU5tNJAAQA4AUqRNElkv1RO4/BpaMsSf6dbgIgAAAvZOffX3ipuf6uIwbjurAYRe+iqwAIAMBv0d/fP9syyWpJszplTO76TLFYXEJ3AQIAgOcwK5v9oKRlnTQmk+ZopPkPdBcgAEyrhHeao00sC8O8u97fkYMz/e6R+fxr6TJAAJi+BXrw5FR+vit5nLZiMozKPqkOOvX/a2E8ST5ClwECwLRpurZM6YDMHqStOFBLc7mCpAs7e5R2RmFJ4RV0GyAATIuuZtd9kpKpOwXgDdqKAw6qQfABSZmO/wEI/BK6DRAApsXGzRsfkWn9VH1+RrqGtuJAlEqlg+T6/TSM1eXnDywcmEvXAQLANP3q2Oop+uS7NtTrNdqKA5GMjl4gKS2v0u3d1bt9FV0HCADTYtbO3n+R/JHJ/lxz+xQtxSRsR29N1XhlF9B1gAAwLYYeHtouDz4+yb9it5YbtdW0FAdi3+lwT9XjcSYtF3OCAASA6VJp1D4v6bJJ+rhfNqW3izkGcIB2925/jaSuNI3ZpUNKudzRdB8gAEzb7451ZS+WdPMBfs7jJv+dOI5j2okDPxy25WkctitzCs0HCADTplwuP2ld2bMk//oEj1zuaJpeXq7X76KVmJQdYaJj0xl8tJTuAwSA6Q4Beyr1+tslP92lu1/gfxbL7V0LDjv0NRz5Y3JPAHTWvP8vPPl4ie4D6ZJtlRWp1Os3SToun88fY00/38xOcPlik44w6QmXtkj+U3e/dsHChT9cv379iBo88YfJ09/fP1tSOt+SZ15kCwAIADOqVqvdI+me3/ovNZjsD5Ovp6fnMI02U3o3vC1gCwDShUd/gKd2gSMj81I8fGYDBAgAQDo1M5k07wTnSjK2AoAAAKTvDEDTulM8/Ay/BwABAAAAEACQVmN3xQMAOlCWEqTXwMBA954dO05ytxOkZJkUHC0loWRzJC2QpGIYSfLtku2StEmuB2RWNtfdzYxurdVqW6gkABAA0OKiKDo4kN5irnN3bd/xGpPm7HuFgul//vfZbK723SS2UKaXSy43KUikYhjdZ651zYx9u1ar/YQKAwABAC0kn8+/MpP4+9x1vqTZ0qTd8n20m44OEr+kGIZluf27dWf/tVwuP0nVAaB1cQ9AhytF0auKYXR1kPgdLv3eUzv/qWElmT7tI6ONQi76ZC6XY3IZACAAYDrlcrkFxSj6ort+LOnsaV78fDN9qNuCciEXvU/7HjEDABAAMJUKUXRRl9lGud6pGZzcxaVDzPTZYpi/pVAo5OgMABAAMAWWS9lSFH3KXN+S7LDWWTM/xZrJPaVc/s10CQAIAJhExWLx8EYY/chdH2jRVZzv5t8pRNEH6RYAEAAwCcIwfJFGR2806cQWX1Uz198Vw/Cf2fYAgACAA1AoFHIZ2W2SvaR91tr+rBiGl9I9ACAAYGI7//mWJGtNyrff2tufFcPw/6WLAEAAwDiUSqUejSZr5Hpp+47CPsGNgQBAAMA4+Ojop8302jYfhrn5lwqFwlI6CgAEADyPQhj+jlzv7ZDhzAtGk68vZ1pqACAA4LnlcrkFJvuyZnCCn8nmplduCvN/THcBgACA55C1zCckHd55I/OPl0qlhXQYAAgAeJZ8Pv8yk3fqkfICHxn5CF0GAAIAnt0s94+ro1+sY+/gLAAAEACwnyPD8Gi5VnT4MHt9ZOQ9dBsACAAYk7i9Px39sneK1wcDAAEA0jGLFs2R+ZtSMtxF+Vz+NLoOAASA1NvR03uBZHPTMt6M+UV0HQAIAEjZDtGlc9RB8xwAAAEA4zYwMNDt0mtSNuxFURQto/sAQABIrZ1P7jzRpDlpG3cmsdfSfQAgAKRWJuOvTueW6cfTfQAgAKSX20A6x60SzQcAAkCK9/+ezlfluo6k+wBAAEgtcxXTOXAtZvsEAAJAivf/mp/WbXPZsmVz2AQAgACQOscsWtSrFE+Lu3v37rlsBQAwNbKtfPSbz+dzGfe8SwdbYnNd6nVLRgMPtjWlJwIPfmk99kC5XN7Tic3ZMXfuHI02U7txZpoZAgAAdHoAyOVyC7rMlruC001+kkvLLPE5Pvb/u+37J5PJzfedurCmfETNYhjWZHaXSzfZaOaGynCl3AnNaTabQZrfiuNdzhkqAOjEABBF0axAOj+QLnbXaZIypqd29C/8QFGyklwlky5UpqliGG0001eC0dGvbRwefpA2AwDwTDNyhNXf339IMQw/kXFtNte33HWmJvda91J3fbKZydaLYfT9I6PoWFoNAMAMBYBjFi2aUwzDT/RksrFkH5a0YIoXmZH0xsR1ZzGMLi8UCktpOQAA0xgAimF49o5Zs38xtuOfN83jNEnnWTP5RSmKPlUqlXpoPQCAADCF+vv7Z5fC6MuSXS0pmuHxdrnrAz4y8t9RFB1F+wEABIApUCgUcj3Z7C0uXdxaw7aXZFw/KeXyb2YTAAAQACbRkVF0YtBM7pLrhBYd+zw3/04pij7EZgAAIABMxs4/n39t4rrOpUNafPzmrk+WouhTGteThwAAEACeoZArvDpJ/FpJB7VLEdz1geK+EAAAAAFg3Ef+YXh0YMmVkma3XSVc7y/moveySQAACADjcNTixYcmsqvb4LT/czP9YzEMz2azAAAQAF6gkUzXf2jmH/M7UBnJvrpsyZI+Ng0AAAHgeZTC8N0yndshNVk4GmS+Ll6VDAAgAPyWnf/iUr9LnXYD3WmlMP+HbB4AAALAc/Cu0c9I1nHvbXf5p45avPhQNhEAAAHgWY7M518rV6fOpnfoSFfXR9hEAAAEgGcfJbt/uKOr43pXGIYvYjMBABAAnjr6j6Jj3XVGh9dnVsbtPWwmAAACwJim+18qBdPnmulPoiiaxaYCAEh9ADhm0aI5Jp2XkhodnE1sJZsKACD1AWD77NmrOvHO/+figf8+mwoAIPUBIHBP141xrjf09fX1srkAAFIdAFKoZ1Z21smUAQBAAEgZM38dVQAAEABSJ3klNQAAEADSxm0ZRQAAEADSxtQ/sHBgLoUAABAAUhYBds7duZgyAAAIAGlLAKM2jyoAAAgAaQsAQZMAAAAgAKSNS0wGBAAgAAAAAAIAAAAgAAAAAAIAAAAgAAAAAAIAAAAgAAAAAAIAAAAgAAAAAAIAAAAgAAAAAAIAAAAgAAAAAAIAAAAEAAAAQAAAAAAEAAAAQAAAAAAEAAAAQAAAAAAEAAAAQAAAAAAEAAAAQAAAAAAEAAAAQAAAAAAEAAAAQAAAAAAEAAAAQAAAAAAEAAAACAAAAIAAAAAACAAAAIAAAAAACAAAAIAAAAAACAAAAIAAAAAACAAAAIAAAAAACAAAAIAAAAAACAAAAIAAAAAACAAAAIAAAAAACAAAABAAAAAAAQAAABAAAAAAAQAAABAAAAAAAQAAABAAAAAAAQAAABAAAAAAAQAAABAAAAAAAQAAABAAAAAAAQAAABAAAAAAAQAAABAAAAAgAAAAAAIAAAAgAAAAAAIAAAAgAAAAAAIAAAAgAAAAAAIAAAAgALQf990UAQBAAEjb/j+T2UYVAAAEgJTJJgkBAABAAEibPe6/ogoAAAJAujzUaDQepwwAAAJAmpg2UAQAAAEgfe6iBAAAAkD6/IASAAAIAOmSjCTJLZQBAEAASBF3/YgbAAEABACzoTQVyWTfYFMBAKQ+APTH8Y2StqSkRntG1PwemwoAIPUB4GZpVKbvpKFALvsGp/8BAASAMVn3SyUf7fD6NJWxv2czAQAQAMZsqNdrkq3u8PqsrlarG9lMAAAEgP2YJ3/bwWcBdjVNH2ITAQAQAJ6l3GgMyewLnVgYd306juOYTQQAQAD4DZrSRyU91GF1uW9vMsq1fwAAAeC5xHH8hMsvluQdUpM9gen3hoeHd7F5AAAIAL9FtV6/2lyXdkJBTP4XD8Tx3WwaAAACwAvQM2/OB2S6tb3L4Z8v1+tfYLMAABAAXqChoaG9HgQrXWrTo2e7qlKvX8ImAQAgAIxTtVrdmm2OrpBUaavjftNg0/xNkppsEgAAAsAEbBwefjAJ7BRJd7ZJDb694NBDL4jjeDebAwCAAHAAarXaluysnuWSrmnhsSdm+j+Vevz769evH2FTAAAQACbBhg0btlXq8e+46xJJe1tp0CY9JvmKchx/TFLCZgAAIABMLq824kvNdKpJP2uRvf/qEflLKvX6NbQfAEAAmELlOL69XI+Pl+w9+46+Z8RG92BlJY7fXK/Xf0nrAQAEgOnRrNRrn+/ZOSfcd1nAh6djoS7V5PauJfV4oNqorqXlAABI2ele4NDDQ9slXVoqlf41GR19o6SLzPUGSd2TuJjdki63wL5SqdVukJRU6DUAADMXAJ5SLpf3SPq2pG/39/cf0p3JnGVur5XptZKOnsBHbjDppkR+gzKZG6vV6tZ2b86skZGRkWxXajfOrmaTpzMAoNMCwP6Gh4cfk/StsT8NLByYu6d3+5HyoOSmUErmu4JeM58rabfctrn7NplvMvcNs3bN2zB2ZqGj7O7q2pHxFG+do7Oe5CsKAB0cAJ5tbGd+19hfasVxvLsYhqOSZdM4/q4FXU9qM19SAJgKASVoeU+kdNxbh4aG9tJ+ACAApJNZLZ3j1kaaD6ATuGQEAIx/P+h6IJVfGPcNdB9AhxzQzCEAYNwS14Z0fl+Ce+g+gA45BTBvavcTNqE32RIAWlyQsdvT+YVp3kT3AXSIg6f0gCnQhN5mSwBocT3be38sKW3Pwz9RaTTupvsAOkRxij+fANCJhh4e2u7Snek6+tc6SU26D6DdhWH4IkkHTelPpvuE5sEhALQBc12Wrv1/8A26DqATZDwzMOW/mUnwEAGgU3Vlvi0pScloH509b/Z1NB1ARxzAWfPUKV9IVgSATlWpVDZJujUVXxbXvzMBEIDOEbxuqpeQyWQm9Ip7AkDbpEj9UwqGuXvE/HN0G0An6O/vP0TyV07xYraUy+UJvTeFANAmynE8KOm+zh6lf6ler/+SbgPoBLMymYskTe0rXQ9g1lQCQPtIzO2THTy+J6yr6+O0GUDHHNIouHjqF+L3EwDScBagUfumrEPvBXD73+Vy+WG6DKATHBlFJ0p+/JQvyGz9RP/TLG1qs92k+yUu+4mkTOcMy9YvadT+pUJ/gZYyMDDQvXvHjnMs0Ykyf4kreJHkD0k+JOmaSr3+A0lOpX5d4pqeM7ZJ8t8EgLScBajX7yzkor8304c6ZEjbvGkX3SyN0l2gNfT19fX2dne/f/f2He+SdISbtO+Fdk/t6+1sSX9VDMOyzC6T+5WVev12pedx5d8qn8ufKflpU35EKO2YPW/ezyf633MJoA3lGvH/lvTjjjj2d3t3dbj6AF0FWkMhV3j17Gz33e76qKQjnucbXJLr/ZLdVgyjXxbC/JdKS/Kr+vv7Z6e1fscsWjQnMP/nafn9lH54II9NEwDa0M3SqGeCiyRtae+9v/6+3Kh9nY4CLbLzD8NzzJIbZDpyAv/54SZ/hwd+ZU8m+2gxDK8v5KL3jU2FmxrbZ/VeKmnZ9PyE+g0H8t8TANpUtVpteDM4U9ITbbrz/24ljj9EJ4HWUIyis0x2uaSeSfi42ZKdYabPZmWbimH+R8Vc9P58Pr+sk2tYCMO3mvwd07W8ZhBcRQBIawgYrv7cPXmTpF1ttupXWDb7dnG9EGgJRy1efKhc/ympewo+PiP5KTJ9Okj8/mIYVYpRdGkhVzhjeQfdh1aMovNM9p/TeBD181qttoEAkOYQ0GjcGJheJ/kj7XHgb988+LBD31wul/fQPaA1jGa7/l7Pe71/8g6U5XqvWXL9pjB6sBPuGyhF0bly/ZemetKf/Xii7x/oZxAAOsADcXyHkuzrJDVaeDVd8k+U67W3rV+/foSuAa2hUCjMd+miGVp8W983sFzKlqLoY+76vqbm7Mlz/p5akvkmAQCSpMqmyi88Exwj03dbcPWelPyCSr3+v8Uzw0BLCZrNt0pqhaPvtrpvYFkY5jeF0Q/HnpaY5nlZ7KbKcKVMAMDTqtXq1kocv8Xk75a0tSUO+02DymZeUqnXL6dDQOtx6U9acLWefd/A/cUo+nQxDE9uhf1WMZd/+6jsbkknzcTyzfVvkxL+2Pw77/tcrte/kAS2TK6vzOARd8Plb6rG8aqx1xkDaDGFQmGpZC9pg1Vd1grzDZRKpYXFKPovmX9V0kEzVIt6f6N2GQEAz6lWq22pNOKLvRm8TPKvSz49M+25NrnrkqZpWbVe/z6dAFpYkhzfhms97fcN9PX19RZy0Qd8ZPQBud48s4d4+sebJ2nmVKYC7nDV4erPJb19WRh+dFT2DskvklSY5MU0JV0v01esK3tFhTv8gTYJADpc1tYjeOq+gTOyss8Uw/ztcl+TZOzKA31ETpKiKDoik+jtMr1PUl8LjPehOXt2/cdkfRgBICU21Os1SR+W9OEjo+hEl85216mSTtTEbgB6VKablNgNmWTkqo3Dww9SZaC9WKDdHXRb7lP3DZwSJP7pUhjdL9cVzYxdXqvVfqoXeDk0iqIjMtJyud4s1wrZ9D3a9/xH//Y392zZsoMAgAl7II7vkHSHJJVKpZ5ms3lUpqkjk8BLgSvnpjnmNseVzDcFW919m8y3Saq7dF+QJBvKmzbVxEQ+QFsLzO5LvDMfzHHpKJk+GCT+wWIY/VLSzyQbkmujSY/v9+8dbIH3uxTJdYJcR7fokKqz5vV+cTI/kACQcmMT8vxs7A9AiuxpNn/eZUGizr8f7EX7/vws2a+fCmiHDOTyvz6QF//8xgDIVwAA0qnRaDwu6Voq0fKurdbrl032hxIAACDF3IN/oQotbWdW/qdT8cEEAABIsWqjepVc66hEiwY001+O3cRNAACmSmDNZjp/YfQV9+BMcVNnavcxzUB/LGkbpWg511Tj+ItT9eEEAGBMMwh2pvLXP9DPqo3qDeI9DakVx3Es+XmSdlKNlrE5CeziqfxeEgCAMTZiqfzxC9w58oMq9fpNkq806TGqMeNG5Mmba7Xalin97lNnYJ8km6RyR+j84GO/EDBqGpB0BdWYyS+l/WWl0bhtysM/lQb2ieN4i6TdaRu3uW+g+9jve/CrSj0+X0nmpeb6rKRfUZXp/ELq0kqj9s/TsSgCAPCMg2E1Ujbm5mgQVGk9fu1swKbKL8qN+M8r9Xixe/Aal/2jpJjKTKnLKnH8F9O1MGYCBJ6pKmlpeg429EAcx7tpO36LpNqo/kjSjyT9ZSmXG1AQXOhuKyQ/nvJM0nfRdP2o9FZN49M4nAEA9j8F4LorZeO9ma5jPMqNxlA5jj9WqddekZUX3HWJZLeJp0gOJInf2rtr1/nTHcYJAMD+X4hg30uS0vO7Yz+g65ioDfV6rdqIL63Ua6/2TBDtCwO6RfteEY4X5upde/eeNZlv+SMAABMwqlQFgJFgtOsmuo7JUK1WG/vCQLy8a3Rkkdz+wORrJe2hOs8ZwL958GGHnrd58+YZeQSZAADsJ47jX7l0dzp+fHzdxs0bH6HrmGz3P/jgo5VG7Wvlen2lZ4JFLn+ryb7v0g6qI0lyd/1duV572/r160dmaiW4CRD4ta+mLpfp2I4fptk3aTam4czAVknfkvStKIpmZRM70wNfIdd5kg5PYUn2yO2d1UbtazO9IpwBAH7tS5F8PwXDfGjP6OiVdBvTKY7j3eVGbbASx+86+LBD+y2wN8j1RaVirgF/RK5/TQJ7ZaUFdv6cAQB+g3KjMVQMo9slvapTx2imzw4PD++i25gpY6e+rxv7+9NiLnecBcFKd12kznkUd6dMV1liX5+/8NBrZ/J0PwEAeKFZXf55k3VqANiaBMEX6DJaSFJpNNZLWi/pY6UwfLlL50v2RkkvbredvsuvlvSdxOyqpx/ta9RabkUJAMBvMHvu3NW7t+/4tKTFHXj8/7dj12WBllSu1++UdKekjywLw/yI2yozu1DykyVZC67yLpPf6B6szs7uvnzDhg1t8V4RY1MDfrNiLv9HMv+3jhqU6wHrzr60XC7P6KNZxTCqS8qlcbsyt7eXG7Wv8w0bv0KhkNNocr6ZzpN0sqTuGVydJ01a6/Lv7Wk2r23HS2oEAOC5ZYphdI/a7xTkc+7+3YPXVxvVG2Y8XBEACAAHqK+vr3dWdtbJZs1TJS2X7JVTHghMP3e36838+qZ0c7tPo80lAOC5Nd2T95oF13dCWHbZP7XCzh+YDGOT59ww9jcWCLInmdnysUDwckm9B7CIXZLd6dIdgeuOEUturcf1X3ZSDQkAwG9RbTRuLIT5L5j83W1+3Ll+9tzeD9FRdHgguHHsT5KC0pIlec9kXmruL3a3nEzzJR2878+63H2HmW2T+3YF2uKJqjIvexCUDznkkGqr3bVPAACm2dzdOz+wY9bsMyQta9ffRs/YG4eGhvbSTaRIUt60qSKpIumK8f7HtVqt4wvEREDA87hny5YdGU/Okbwdp83dZvIV1Wq1QScBEACAcdrYaFQlvVlSGx1F+3bJzyvX63fRQQAEAGCCKvX6DyQ/T1I7PO7zhKQ3VOp13vYHgAAATEIIuMY9WNXibzWrKMm8plKv/5iOASAAAJOk2qjekJheIem+1ls7u2rEkxMqmyq/oFMACADAJIvj+H7PBCe5/Hstskrb5PbeSr22stFoPE6HABAAgKk6E1Ctbq3W6xdaYudKmsm77K+w0eyLK43aP0tyOgOAAABMg/Km2ppZO+cMuOlDkh6eruWa6XrJT6nU4/PLD5aH6QQAAgAwzYYeHtpejeNPzdm9Ky/X+0z62RQtaptJXzbTSeU4fj03+gGYKGYCBCbRPVu27JD0OUmfKy4pvkRB8hbJXyfpBEldE/zYX0p+g0vr5u7efcXYMgCAAAC0orE78T8sSccsWjRnx6xZJ7rZUrkdKfMjzXWQZHOlZL5kI+ba5uZPmoItLt1vrg1myS8eqNfvo5oACABA+54ZuGnsDwBmHPcAAJgJSQrH/Cu5vStJ7HbaD84AAEirFN7HYA9WGrV/o/XgDACANNuWviH7NtoOAgCAtHucMQMEAADpOxqupG7IpgfoOwgAANL+07Mhdft/9430HQQAACmX3JvCQd9L30EAAJBqu0ZGbpe0N0VD3tkzd+56Og8CAIBU27x5807JfpqaAbtuHRoa2kvnQQAAkHrufn1qBmspGisIAADwWyXBt9IyUmWz36XhIAAAgKTqcPUBydJwXfzmSqWyiY6DAAAAY0zJlzt9jC7/Mp0GAQAA9rNzZOQrkh7u3J2/arl6/b/oNAgAALCfzZs373TX5zt2gKZ/uFkapdMgAADAsySBPifpoQ48/i8H2Syn/9GyMpQAwEx64okndh8yf8FWmVZ21O5fenulVruPDqNVGSUA0AoHI8Uwf4fkx3fEzt80WI3jVbQVrYxLAABaQTNQ8jZJuzpgLA8l0jtpKVo+dVMCAK3gsa1bHznk4AVbJZ3Tzgf/Ln9LrV6/i46CAAAAL9DjW5/46SEHH7xM0kvadP//kWq9/h90Eu2ASwAAWmoP2jRdLOnHbbfisv+o1Ot/SwtBAACACYjjeLd1Zc+T1E530F+Wq9f+mO6BAAAAB6BcLj+sbGa5pHtafV1N9s0l9fh3b2bCH7QZHgME0LKOWrz40JFs16Ckk1pw9Vzy/69Sr39g3z8D7YWbAAG0rEe2bdt16MLDvqGkeYRkL2+hff928+DtlUb8WboEzgAAwBQq5vJ/JPPPSJo3w6vy4ySwP6zVahvoCggAADANli1Z0jeSyfyr+YxMG7zVXR+tNuLPS2rSDRAAAGCaFXKFM2TJP5h07FQvy6UdZvqPpvR3cRz/iuqDAAAAMysohOFbTPZuSSdPwY6/JtdXsqPdX9i4eeMjlBsEAABoMcUlxZcoSM5290l5tNnMf1Kp128Wd/cDAACgk/z/NGo8v1c6Bd8AAAAldEVYdGRhdGU6Y3JlYXRlADIwMTgtMTAtMTVUMTA6MTY6MDYrMDA6MDBp7S8XAAAAJXRFWHRkYXRlOm1vZGlmeQAyMDE4LTEwLTE1VDEwOjE2OjA2KzAwOjAwGLCXqwAAAABJRU5ErkJggg==;fontSize=14;fontColor=#182633;" parent="-sU8y2Q3AdZbQh8XbGMl-1" vertex="1">
                    <mxGeometry x="2865" y="449.12999999999994" width="64.92" height="64.92" as="geometry"/>
                </mxCell>
                <mxCell id="250" value="Users" style="pointerEvents=1;shadow=0;dashed=0;html=1;strokeColor=none;labelPosition=center;verticalLabelPosition=bottom;verticalAlign=top;align=center;fillColor=#505050;shape=mxgraph.mscae.intune.user_group;labelBackgroundColor=none;fontFamily=Helvetica;fontSize=14;fontColor=#182633;" parent="-sU8y2Q3AdZbQh8XbGMl-1" vertex="1">
                    <mxGeometry x="2660" y="467.58" width="55" height="43.95" as="geometry"/>
                </mxCell>
            </root>
        </mxGraphModel>
    </diagram>
</mxfile>